# This file uses centimeters as units for non-parametric coordinates.

mtllib SM_Env_Road_Straight_01.mtl
g default
v -4.999990 0.000000 7.130872
v -4.999990 0.000000 0.000000
v 0.000000 0.000000 0.000000
v -4.999990 0.194796 7.130872
v -4.999990 0.194796 10.000000
v 0.000000 0.194796 10.000000
v -4.999990 0.000000 6.834678
v -2.499995 0.194796 10.000000
v -2.499995 0.194796 7.130872
v -2.499995 0.000000 7.130872
v -2.499995 0.000000 6.834678
v 0.000000 0.000000 6.834678
v 0.000000 0.194796 7.130872
v 0.000000 0.000000 7.130872
v -4.999990 0.000000 10.000000
v -2.499995 0.000000 10.000000
v 0.000000 0.000000 10.000000
v -3.518459 0.000000 0.000000
v -1.481531 0.000000 0.000000
v -3.518459 0.000000 0.444885
v -1.481531 0.000000 0.444885
vt 0.874301 0.326072
vt 0.867438 0.326072
vt 0.873220 0.298609
vt 0.892747 0.122094
vt 0.892747 0.211475
vt 0.873160 0.122094
vt 0.873160 0.211475
vt 0.756221 0.214060
vt 0.756221 0.390399
vt 0.747658 0.209146
vt 0.747658 0.390399
vt 0.633953 0.209146
vt 0.633953 0.390399
vt 0.768910 0.390399
vt 0.768910 0.214060
vt 0.633953 0.390399
vt 0.747658 0.390399
vt 0.633953 0.209146
vt 0.747658 0.209146
vt 0.756221 0.390399
vt 0.756221 0.214060
vt 0.768910 0.214060
vt 0.768910 0.390399
vt 0.867438 0.326072
vt 0.873220 0.298609
vt 0.867437 0.280261
vt 0.749985 0.259183
vt 0.751319 0.259183
vt 0.749985 0.268261
vt 0.751319 0.268261
vt 0.749985 0.259183
vt 0.751319 0.259183
vt 0.749985 0.268261
vt 0.751319 0.268261
vt 0.867437 0.280261
vt 0.874301 0.298609
vt 0.874301 0.326072
vt 0.874301 0.298609
vn 0.000000 1.000000 0.000000
vn 0.000000 1.000000 0.000000
vn 0.000000 1.000000 0.000000
vn 0.000000 1.000000 0.000000
vn 0.000000 1.000000 0.000000
vn 0.000000 1.000000 0.000000
vn 0.000000 1.000000 0.000000
vn 0.000000 1.000000 0.000000
vn 0.000000 1.000000 0.000000
vn 0.000000 0.000000 -1.000000
vn 0.000000 0.000000 -1.000000
vn 0.000000 0.000000 -1.000000
vn 0.000000 0.000000 -1.000000
vn 0.000000 0.000000 -1.000000
vn 0.000000 0.000000 -1.000000
vn 0.000000 1.000000 0.000000
vn 0.000000 1.000000 0.000000
vn 0.000000 1.000000 0.000000
vn 0.000000 1.000000 0.000000
vn 0.000000 1.000000 0.000000
vn 0.000000 1.000000 0.000000
vn 0.000000 1.000000 0.000000
vn 0.000000 1.000000 0.000000
vn 0.000000 1.000000 0.000000
vn 0.000000 1.000000 0.000000
vn 0.000000 1.000000 0.000000
vn 0.000000 1.000000 0.000000
vn 0.000000 1.000000 0.000000
vn 0.000000 1.000000 0.000000
vn 0.000000 1.000000 0.000000
vn 0.000000 1.000000 0.000000
vn 0.000000 1.000000 0.000000
vn 0.000000 1.000000 0.000000
vn 0.000000 0.000000 -1.000000
vn 0.000000 0.000000 -1.000000
vn 0.000000 0.000000 -1.000000
vn 0.000000 0.000000 -1.000000
vn 0.000000 0.000000 -1.000000
vn 0.000000 0.000000 -1.000000
vn 0.000000 1.000000 0.000000
vn 0.000000 1.000000 0.000000
vn 0.000000 1.000000 0.000000
vn 0.000000 1.000000 0.000000
vn 0.000000 1.000000 0.000000
vn 0.000000 1.000000 0.000000
vn 0.000000 1.000000 0.000000
vn 0.000000 1.000000 0.000000
vn 0.000000 1.000000 0.000000
vn 0.000000 0.000000 1.000000
vn 0.000000 0.000000 1.000000
vn 0.000000 0.000000 1.000000
vn 0.000000 0.000000 1.000000
vn 0.000000 0.000000 1.000000
vn 0.000000 0.000000 1.000000
vn 0.000000 0.000000 1.000000
vn 0.000000 0.000000 1.000000
vn 0.000000 0.000000 1.000000
vn 0.000000 0.000000 1.000000
vn 0.000000 0.000000 1.000000
vn 0.000000 0.000000 1.000000
vn 0.000000 1.000000 0.000000
vn 0.000000 1.000000 0.000000
vn 0.000000 1.000000 0.000000
vn 0.000000 1.000000 0.000000
vn 0.000000 1.000000 0.000000
vn 0.000000 1.000000 0.000000
vn 0.000000 1.000000 0.000000
vn 0.000000 1.000000 0.000000
vn 0.000000 1.000000 0.000000
vn 0.000000 1.000000 0.000000
vn 0.000000 1.000000 0.000000
vn 0.000000 1.000000 0.000000
vn 0.000000 1.000000 0.000000
vn 0.000000 1.000000 0.000000
vn 0.000000 1.000000 0.000000
s off
g SM_Env_Road_Straight_01:Mesh
usemtl initialShadingGroup
f 2/1/1 7/2/2 20/3/3
f 19/4/4 18/5/5 21/6/6
f 21/6/7 18/5/8 20/7/9
f 10/8/10 1/9/11 9/10/12
f 9/10/13 1/9/14 4/11/15
f 8/12/16 9/10/17 5/13/18
f 5/13/19 9/10/20 4/11/21
f 1/9/22 10/8/23 7/14/24
f 7/14/25 10/8/26 11/15/27
f 6/16/28 13/17/29 8/18/30
f 8/18/31 13/17/32 9/19/33
f 14/20/34 10/21/35 13/17/36
f 13/17/37 10/21/38 9/19/39
f 11/22/40 10/21/41 12/23/42
f 12/23/43 10/21/44 14/20/45
f 12/24/46 21/25/47 11/26/48
f 8/27/49 5/28/50 16/29/51
f 16/29/52 5/28/53 15/30/54
f 6/31/55 8/32/56 17/33/57
f 17/33/58 8/32/59 16/34/60
f 20/3/61 11/26/62 21/25/63
f 20/3/64 7/2/65 11/35/66
f 2/1/67 20/3/68 18/36/69
f 3/37/70 19/38/71 21/25/72
f 3/37/73 21/25/74 12/24/75
