# This file uses centimeters as units for non-parametric coordinates.

mtllib SM_Env_Road_Corner_01.mtl
g default
v 0.000000 0.000000 7.130872
v 0.000000 0.000000 0.000000
v 0.000000 0.194796 7.130872
v 0.000000 0.194796 10.000000
v -4.999990 0.194796 10.000000
v 0.000000 0.000000 6.834678
v -2.130869 0.194796 10.000000
v -2.130869 0.194796 7.130872
v -1.842269 0.000000 6.834678
v -1.842269 0.000000 0.000000
v -4.999990 0.194796 7.130872
v -4.999990 0.194796 0.000000
v -2.130868 0.000000 7.130872
v -2.130869 0.194796 0.000000
v -2.130869 0.000000 0.000000
v -2.130869 0.194796 7.459408
v -2.458236 0.194796 7.130872
v -2.464303 0.194796 7.456145
v 0.000000 0.000000 10.000000
v -2.130869 0.000000 10.000000
v -4.999990 0.000000 10.000000
v -4.999990 0.000000 7.130872
v -4.999990 0.000000 0.000000
v 0.000000 0.000000 6.834678
v -1.842269 0.000000 6.834678
v -1.842269 0.000000 0.000000
vt 0.842674 0.308852
vt 0.851647 0.308852
vt 0.842674 0.298572
vt 0.851647 0.298572
vt 0.756221 0.393365
vt 0.749558 0.209158
vt 0.747658 0.393365
vt 0.752995 0.206778
vt 0.747658 0.209146
vt 0.734209 0.209147
vt 0.633855 0.393365
vt 0.759447 0.140720
vt 0.768910 0.214060
vt 0.762672 0.199407
vt 0.764207 0.199150
vt 0.723674 0.208349
vt 0.723722 0.230003
vt 0.633855 0.209146
vt 0.633855 0.393365
vt 0.633855 0.393365
vt 0.633855 0.027701
vt 0.734256 0.027701
vt 0.747658 0.027701
vt 0.756221 0.214060
vt 0.747658 0.393365
vt 0.756221 0.393365
vt 0.734173 0.205840
vt 0.734215 0.196641
vt 0.747772 0.205853
vt 0.735620 0.229749
vt 0.735496 0.393365
vt 0.633855 0.209146
vt 0.734400 0.206002
vt 0.755556 0.235551
vt 0.755556 0.240209
vt 0.753382 0.235551
vt 0.753382 0.240209
vt 0.752709 0.235551
vt 0.752709 0.240209
vt 0.750535 0.235551
vt 0.750535 0.240209
vt 0.755556 0.244867
vt 0.753382 0.244867
vt 0.752709 0.251785
vt 0.750535 0.251785
vt 0.630203 0.393365
vt 0.999679 0.393365
vt 0.630203 0.023889
vt 0.999679 0.023889
vt 0.630203 0.393365
vt 0.999679 0.393365
vt 0.630203 0.023889
vt 0.999679 0.023889
vt 0.768910 0.393365
vn 0.000000 1.000000 0.000000
vn 0.000000 1.000000 0.000000
vn 0.000000 1.000000 0.000000
vn 0.000000 1.000000 0.000000
vn 0.000000 1.000000 0.000000
vn 0.000000 1.000000 0.000000
vn 0.000000 0.000000 -1.000000
vn 0.000000 0.000000 -1.000000
vn 0.000000 0.000000 -1.000000
vn 0.000000 0.000000 -1.000000
vn 0.000000 0.000000 -1.000000
vn 0.000000 0.000000 -1.000000
vn 0.000000 1.000000 0.000000
vn 0.000000 1.000000 0.000000
vn 0.000000 1.000000 0.000000
vn 0.000000 1.000000 0.000000
vn 0.000000 1.000000 0.000000
vn 0.000000 1.000000 0.000000
vn 0.000000 1.000000 0.000000
vn 0.000000 1.000000 0.000000
vn 0.000000 1.000000 0.000000
vn 0.000000 1.000000 0.000000
vn 0.000000 1.000000 0.000000
vn 0.000000 1.000000 0.000000
vn 0.000000 1.000000 0.000000
vn 0.000000 1.000000 0.000000
vn 0.000000 1.000000 0.000000
vn 0.000000 1.000000 0.000000
vn 0.000000 1.000000 0.000000
vn 0.000000 1.000000 0.000000
vn 0.000000 1.000000 0.000000
vn 0.000000 1.000000 0.000000
vn 0.000000 1.000000 0.000000
vn 1.000000 0.000000 0.000000
vn 1.000000 0.000005 -0.000003
vn 1.000000 0.000000 0.000000
vn 1.000000 0.000005 -0.000003
vn 1.000000 0.000000 0.000000
vn 1.000000 0.000000 0.000000
vn 0.000000 1.000000 0.000000
vn 0.000000 1.000000 0.000000
vn 0.000000 1.000000 0.000000
vn 0.000000 1.000000 0.000000
vn 0.000000 1.000000 0.000000
vn 0.000000 1.000000 0.000000
vn 0.000000 1.000000 0.000000
vn 0.000000 1.000000 0.000000
vn 0.000000 1.000000 0.000000
vn 0.000000 1.000000 0.000000
vn 0.000000 1.000000 0.000000
vn 0.000000 1.000000 0.000000
vn 0.000000 1.000000 0.000000
vn 0.000000 1.000000 0.000000
vn 0.000000 1.000000 0.000000
vn 0.000000 1.000000 0.000000
vn 0.000000 1.000000 0.000000
vn 0.000000 1.000000 0.000000
vn 0.000000 1.000000 0.000000
vn 0.000000 1.000000 0.000000
vn 0.000000 1.000000 0.000000
vn 0.000000 0.000000 1.000000
vn 0.000000 0.000000 1.000000
vn 0.000000 0.000000 1.000000
vn 0.000000 0.000000 1.000000
vn 0.000000 0.000000 1.000000
vn 0.000000 0.000000 1.000000
vn -1.000000 0.000000 0.000000
vn -1.000000 0.000000 0.000000
vn -1.000000 0.000000 0.000000
vn -1.000000 0.000000 0.000000
vn -1.000000 0.000000 0.000000
vn -1.000000 0.000000 0.000000
vn 0.000000 0.000000 1.000000
vn 0.000000 0.000000 1.000000
vn 0.000000 0.000000 1.000000
vn 0.000000 0.000000 1.000000
vn 0.000000 0.000000 1.000000
vn 0.000000 0.000000 1.000000
vn -1.000000 0.000000 0.000000
vn -1.000000 0.000000 0.000000
vn -1.000000 0.000000 0.000000
vn -1.000000 0.000000 0.000000
vn -1.000000 0.000000 0.000000
vn -1.000000 0.000000 0.000000
vn 0.000000 0.000000 0.000000
vn 0.000000 0.000000 0.000000
vn 0.000000 0.000000 0.000000
vn 0.000000 0.000000 0.000000
vn 0.000000 0.000000 0.000000
vn 0.000000 0.000000 0.000000
vn 0.000000 0.000000 0.000000
vn 0.000000 0.000000 0.000000
vn 0.000000 0.000000 0.000000
vn 0.000000 0.000000 0.000000
vn 0.000000 0.000000 0.000000
vn 0.000000 0.000000 0.000000
vn 0.000000 1.000000 0.000000
vn 0.000000 1.000000 0.000000
vn 0.000000 1.000000 0.000000
vn 0.000000 1.000000 0.000000
vn 0.000000 1.000000 0.000000
vn 0.000000 1.000000 0.000000
s off
g SM_Env_Road_Corner_01:Mesh
usemtl initialShadingGroup
f 6/1/1 2/2/2 9/3/3
f 2/2/4 10/4/5 9/3/6
f 1/5/7 13/6/8 3/7/9
f 13/6/10 8/8/11 3/7/12
f 8/9/13 16/10/14 3/7/15
f 16/10/16 4/11/17 3/7/18
f 13/12/19 9/13/20 15/14/21
f 9/13/22 10/15/23 15/14/24
f 16/16/25 18/17/26 7/18/27
f 5/19/28 7/18/29 18/17/30
f 12/20/31 11/21/32 17/22/33
f 8/23/34 13/24/35 14/25/36
f 13/24/37 15/26/38 14/25/39
f 17/27/40 18/28/41 8/29/42
f 17/30/43 11/31/44 18/17/45
f 5/19/46 18/17/47 11/31/48
f 7/32/49 4/11/50 16/10/51
f 8/23/52 14/25/53 17/22/54
f 12/20/55 17/22/56 14/25/57
f 8/29/58 18/28/59 16/33/60
f 4/34/61 7/35/62 19/36/63
f 7/35/64 20/37/65 19/36/66
f 5/38/67 11/39/68 21/40/69
f 11/39/70 22/41/71 21/40/72
f 7/35/73 5/42/74 20/37/75
f 5/42/76 21/43/77 20/37/78
f 11/39/79 12/44/80 22/41/81
f 12/44/82 23/45/83 22/41/84
f 24/46/85 25/47/86 6/48/87
f 6/48/88 25/47/89 9/49/90
f 25/50/91 26/51/92 9/52/93
f 9/52/94 26/51/95 10/53/96
f 6/54/97 9/13/98 1/5/99
f 9/13/100 13/12/101 1/5/102
