# This file uses centimeters as units for non-parametric coordinates.

mtllib SM_Env_Track_Straight_01.mtl
g default
v -1.831609 0.460355 -4.740211
v 1.831610 0.460355 -4.740211
v -1.831609 0.623629 -4.740211
v 1.831610 0.623629 -4.740211
v -1.831609 0.623629 -5.289122
v 1.831610 0.623629 -5.289122
v -1.831609 0.460355 -5.289122
v 1.831610 0.460355 -5.289122
v -1.831609 0.460355 -5.838033
v 1.831610 0.460355 -5.838033
v -1.831609 0.623629 -5.838033
v 1.831610 0.623629 -5.838033
v -1.831609 0.623629 -6.386944
v 1.831610 0.623629 -6.386944
v -1.831609 0.460355 -6.386944
v 1.831610 0.460355 -6.386944
v -1.831609 0.460355 -6.935854
v 1.831610 0.460355 -6.935854
v -1.831609 0.623629 -6.935854
v 1.831610 0.623629 -6.935854
v -1.831609 0.623629 -7.484766
v 1.831610 0.623629 -7.484766
v -1.831609 0.460355 -7.484766
v 1.831610 0.460355 -7.484766
v -1.831609 0.460355 -8.033676
v 1.831610 0.460355 -8.033676
v -1.831609 0.623629 -8.033676
v 1.831610 0.623629 -8.033676
v -1.831609 0.623629 -8.582586
v 1.831610 0.623629 -8.582586
v -1.831609 0.460355 -8.582586
v 1.831610 0.460355 -8.582586
v -1.831609 0.460355 -9.131498
v 1.831610 0.460355 -9.131498
v -1.831609 0.623629 -9.131498
v 1.831610 0.623629 -9.131498
v -1.831609 0.623629 -9.680408
v 1.831610 0.623629 -9.680408
v -1.831609 0.460355 -9.680408
v 1.831610 0.460355 -9.680408
v -1.831609 0.460355 -3.642389
v 1.831610 0.460355 -3.642389
v -1.831609 0.623629 -3.642389
v 1.831610 0.623629 -3.642389
v -1.831609 0.623629 -4.191300
v 1.831610 0.623629 -4.191300
v -1.831609 0.460355 -4.191300
v 1.831610 0.460355 -4.191300
v -1.831609 0.460355 -2.544568
v 1.831610 0.460355 -2.544568
v -1.831609 0.623629 -2.544568
v 1.831610 0.623629 -2.544568
v -1.831609 0.623629 -3.093479
v 1.831610 0.623629 -3.093479
v -1.831609 0.460355 -3.093479
v 1.831610 0.460355 -3.093479
v -1.831609 0.460355 -1.446747
v 1.831610 0.460355 -1.446747
v -1.831609 0.623629 -1.446747
v 1.831610 0.623629 -1.446747
v -1.831609 0.623629 -1.995657
v 1.831610 0.623629 -1.995657
v -1.831609 0.460355 -1.995657
v 1.831610 0.460355 -1.995657
v -1.831609 0.460355 -0.348925
v 1.831610 0.460355 -0.348925
v -1.831609 0.623629 -0.348925
v 1.831610 0.623629 -0.348925
v -1.831609 0.623629 -0.897836
v 1.831610 0.623629 -0.897836
v -1.831609 0.460355 -0.897836
v 1.831610 0.460355 -0.897836
v -1.180690 0.575857 0.000000
v -1.481140 0.575857 0.000000
v -1.180690 0.771853 0.000000
v -1.481140 0.771853 0.000000
v -1.180690 0.771853 -10.000000
v -1.481140 0.771853 -10.000000
v -1.180690 0.575857 -10.000000
v -1.481140 0.575857 -10.000000
v 1.180689 0.575857 0.000000
v 1.481140 0.575857 0.000000
v 1.180689 0.771853 0.000000
v 1.481140 0.771853 0.000000
v 1.180689 0.771853 -10.000000
v 1.481140 0.771853 -10.000000
v 1.180689 0.575857 -10.000000
v 1.481140 0.575857 -10.000000
v -2.500000 0.000000 0.000000
v 2.500000 0.000000 0.000000
v -1.237700 0.500000 0.000000
v 1.237701 0.500000 0.000000
v -1.237700 0.500000 -10.000000
v 1.237701 0.500000 -10.000000
v -2.500000 0.000000 -10.000000
v 2.500000 0.000000 -10.000000
v 0.000000 0.000000 0.000000
vt 0.201994 0.401749
vt 0.201994 0.401749
vt 0.201994 0.401749
vt 0.201994 0.401749
vt 0.268153 0.401749
vt 0.268153 0.401749
vt 0.268153 0.401749
vt 0.268153 0.401749
vt 0.201994 0.401749
vt 0.201994 0.401749
vt 0.201994 0.401749
vt 0.201994 0.401749
vt 0.237185 0.401749
vt 0.237185 0.401749
vt 0.237185 0.401749
vt 0.237185 0.401749
vt 0.237185 0.401749
vt 0.237185 0.401749
vt 0.237185 0.401749
vt 0.237185 0.401749
vt 0.201994 0.401749
vt 0.201994 0.401749
vt 0.201994 0.401749
vt 0.201994 0.401749
vt 0.268153 0.401749
vt 0.268153 0.401749
vt 0.268153 0.401749
vt 0.268153 0.401749
vt 0.201994 0.401749
vt 0.201994 0.401749
vt 0.201994 0.401749
vt 0.201994 0.401749
vt 0.237185 0.401749
vt 0.237185 0.401749
vt 0.237185 0.401749
vt 0.237185 0.401749
vt 0.237185 0.401749
vt 0.237185 0.401749
vt 0.237185 0.401749
vt 0.237185 0.401749
vt 0.201994 0.401749
vt 0.201994 0.401749
vt 0.201994 0.401749
vt 0.201994 0.401749
vt 0.268153 0.401749
vt 0.268153 0.401749
vt 0.268153 0.401749
vt 0.268153 0.401749
vt 0.201994 0.401749
vt 0.201994 0.401749
vt 0.201994 0.401749
vt 0.201994 0.401749
vt 0.237185 0.401749
vt 0.237185 0.401749
vt 0.237185 0.401749
vt 0.237185 0.401749
vt 0.237185 0.401749
vt 0.237185 0.401749
vt 0.237185 0.401749
vt 0.237185 0.401749
vt 0.201994 0.401749
vt 0.201994 0.401749
vt 0.201994 0.401749
vt 0.201994 0.401749
vt 0.268153 0.401749
vt 0.268153 0.401749
vt 0.268153 0.401749
vt 0.268153 0.401749
vt 0.201994 0.401749
vt 0.201994 0.401749
vt 0.201994 0.401749
vt 0.201994 0.401749
vt 0.237185 0.401749
vt 0.237185 0.401749
vt 0.237185 0.401749
vt 0.237185 0.401749
vt 0.237185 0.401749
vt 0.237185 0.401749
vt 0.237185 0.401749
vt 0.237185 0.401749
vt 0.201994 0.401749
vt 0.201994 0.401749
vt 0.201994 0.401749
vt 0.201994 0.401749
vt 0.268153 0.401749
vt 0.268153 0.401749
vt 0.268153 0.401749
vt 0.268153 0.401749
vt 0.201994 0.401749
vt 0.201994 0.401749
vt 0.201994 0.401749
vt 0.201994 0.401749
vt 0.237185 0.401749
vt 0.237185 0.401749
vt 0.237185 0.401749
vt 0.237185 0.401749
vt 0.237185 0.401749
vt 0.237185 0.401749
vt 0.237185 0.401749
vt 0.237185 0.401749
vt 0.201994 0.401749
vt 0.201994 0.401749
vt 0.201994 0.401749
vt 0.201994 0.401749
vt 0.268153 0.401749
vt 0.268153 0.401749
vt 0.268153 0.401749
vt 0.268153 0.401749
vt 0.201994 0.401749
vt 0.201994 0.401749
vt 0.201994 0.401749
vt 0.201994 0.401749
vt 0.237185 0.401749
vt 0.237185 0.401749
vt 0.237185 0.401749
vt 0.237185 0.401749
vt 0.237185 0.401749
vt 0.237185 0.401749
vt 0.237185 0.401749
vt 0.237185 0.401749
vt 0.201994 0.401749
vt 0.201994 0.401749
vt 0.201994 0.401749
vt 0.201994 0.401749
vt 0.268153 0.401749
vt 0.268153 0.401749
vt 0.268153 0.401749
vt 0.268153 0.401749
vt 0.201994 0.401749
vt 0.201994 0.401749
vt 0.201994 0.401749
vt 0.201994 0.401749
vt 0.237185 0.401749
vt 0.237185 0.401749
vt 0.237185 0.401749
vt 0.237185 0.401749
vt 0.237185 0.401749
vt 0.237185 0.401749
vt 0.237185 0.401749
vt 0.237185 0.401749
vt 0.201994 0.401749
vt 0.201994 0.401749
vt 0.201994 0.401749
vt 0.201994 0.401749
vt 0.268153 0.401749
vt 0.268153 0.401749
vt 0.268153 0.401749
vt 0.268153 0.401749
vt 0.201994 0.401749
vt 0.201994 0.401749
vt 0.201994 0.401749
vt 0.201994 0.401749
vt 0.237185 0.401749
vt 0.237185 0.401749
vt 0.237185 0.401749
vt 0.237185 0.401749
vt 0.237185 0.401749
vt 0.237185 0.401749
vt 0.237185 0.401749
vt 0.237185 0.401749
vt 0.201994 0.401749
vt 0.201994 0.401749
vt 0.201994 0.401749
vt 0.201994 0.401749
vt 0.268153 0.401749
vt 0.268153 0.401749
vt 0.268153 0.401749
vt 0.268153 0.401749
vt 0.201994 0.401749
vt 0.201994 0.401749
vt 0.201994 0.401749
vt 0.201994 0.401749
vt 0.237185 0.401749
vt 0.237185 0.401749
vt 0.237185 0.401749
vt 0.237185 0.401749
vt 0.237185 0.401749
vt 0.237185 0.401749
vt 0.237185 0.401749
vt 0.237185 0.401749
vt 0.140112 0.474238
vt 0.140112 0.474238
vt 0.140112 0.474238
vt 0.140112 0.474238
vt 0.201994 0.470702
vt 0.201994 0.470702
vt 0.201994 0.470702
vt 0.201994 0.470702
vt 0.140112 0.474238
vt 0.140112 0.474238
vt 0.140112 0.474238
vt 0.140112 0.474238
vt 0.109171 0.474238
vt 0.109171 0.474238
vt 0.109171 0.474238
vt 0.109171 0.474238
vt 0.172821 0.474238
vt 0.172821 0.474238
vt 0.172821 0.474238
vt 0.172821 0.474238
vt 0.172821 0.474238
vt 0.172821 0.474238
vt 0.172821 0.474238
vt 0.172821 0.474238
vt 0.140112 0.474238
vt 0.140112 0.474238
vt 0.140112 0.474238
vt 0.140112 0.474238
vt 0.201994 0.470702
vt 0.201994 0.470702
vt 0.201994 0.470702
vt 0.201994 0.470702
vt 0.140112 0.474238
vt 0.140112 0.474238
vt 0.140112 0.474238
vt 0.140112 0.474238
vt 0.109171 0.474238
vt 0.109171 0.474238
vt 0.109171 0.474238
vt 0.109171 0.474238
vt 0.172821 0.474238
vt 0.172821 0.474238
vt 0.172821 0.474238
vt 0.172821 0.474238
vt 0.172821 0.474238
vt 0.172821 0.474238
vt 0.172821 0.474238
vt 0.172821 0.474238
vt 0.230430 0.060263
vt 0.230430 0.060263
vt 0.230430 0.060263
vt 0.230430 0.060263
vt 0.230430 0.060263
vt 0.300468 0.060263
vt 0.300468 0.060263
vt 0.300468 0.060263
vt 0.300468 0.060263
vt 0.230430 0.060263
vt 0.230430 0.060263
vt 0.230430 0.060263
vt 0.230430 0.060263
vt 0.265449 0.060263
vt 0.265449 0.060263
vt 0.265449 0.060263
vt 0.265449 0.060263
vt 0.265449 0.060263
vt 0.265449 0.060263
vt 0.265449 0.060263
vt 0.265449 0.060263
vn 0.000000 0.000000 1.000000
vn 0.000000 0.000000 1.000000
vn 0.000000 0.000000 1.000000
vn 0.000000 0.000000 1.000000
vn 0.000000 1.000000 0.000000
vn 0.000000 1.000000 0.000000
vn 0.000000 1.000000 0.000000
vn 0.000000 1.000000 0.000000
vn 0.000000 0.000000 -1.000000
vn 0.000000 0.000000 -1.000000
vn 0.000000 0.000000 -1.000000
vn 0.000000 0.000000 -1.000000
vn 1.000000 0.000000 0.000000
vn 1.000000 0.000000 0.000000
vn 1.000000 0.000000 0.000000
vn 1.000000 0.000000 0.000000
vn -1.000000 0.000000 0.000000
vn -1.000000 0.000000 0.000000
vn -1.000000 0.000000 0.000000
vn -1.000000 0.000000 0.000000
vn 0.000000 0.000000 1.000000
vn 0.000000 0.000000 1.000000
vn 0.000000 0.000000 1.000000
vn 0.000000 0.000000 1.000000
vn 0.000000 1.000000 0.000000
vn 0.000000 1.000000 0.000000
vn 0.000000 1.000000 0.000000
vn 0.000000 1.000000 0.000000
vn 0.000000 0.000000 -1.000000
vn 0.000000 0.000000 -1.000000
vn 0.000000 0.000000 -1.000000
vn 0.000000 0.000000 -1.000000
vn 1.000000 0.000000 0.000000
vn 1.000000 0.000000 0.000000
vn 1.000000 0.000000 0.000000
vn 1.000000 0.000000 0.000000
vn -1.000000 0.000000 0.000000
vn -1.000000 0.000000 0.000000
vn -1.000000 0.000000 0.000000
vn -1.000000 0.000000 0.000000
vn 0.000000 0.000000 1.000000
vn 0.000000 0.000000 1.000000
vn 0.000000 0.000000 1.000000
vn 0.000000 0.000000 1.000000
vn 0.000000 1.000000 0.000000
vn 0.000000 1.000000 0.000000
vn 0.000000 1.000000 0.000000
vn 0.000000 1.000000 0.000000
vn 0.000000 0.000000 -1.000000
vn 0.000000 0.000000 -1.000000
vn 0.000000 0.000000 -1.000000
vn 0.000000 0.000000 -1.000000
vn 1.000000 0.000000 0.000000
vn 1.000000 0.000000 0.000000
vn 1.000000 0.000000 0.000000
vn 1.000000 0.000000 0.000000
vn -1.000000 0.000000 0.000000
vn -1.000000 0.000000 0.000000
vn -1.000000 0.000000 0.000000
vn -1.000000 0.000000 0.000000
vn 0.000000 0.000000 1.000000
vn 0.000000 0.000000 1.000000
vn 0.000000 0.000000 1.000000
vn 0.000000 0.000000 1.000000
vn 0.000000 1.000000 0.000000
vn 0.000000 1.000000 0.000000
vn 0.000000 1.000000 0.000000
vn 0.000000 1.000000 0.000000
vn 0.000000 0.000000 -1.000000
vn 0.000000 0.000000 -1.000000
vn 0.000000 0.000000 -1.000000
vn 0.000000 0.000000 -1.000000
vn 1.000000 0.000000 0.000000
vn 1.000000 0.000000 0.000000
vn 1.000000 0.000000 0.000000
vn 1.000000 0.000000 0.000000
vn -1.000000 0.000000 0.000000
vn -1.000000 0.000000 0.000000
vn -1.000000 0.000000 0.000000
vn -1.000000 0.000000 0.000000
vn 0.000000 0.000000 1.000000
vn 0.000000 0.000000 1.000000
vn 0.000000 0.000000 1.000000
vn 0.000000 0.000000 1.000000
vn 0.000000 1.000000 0.000000
vn 0.000000 1.000000 0.000000
vn 0.000000 1.000000 0.000000
vn 0.000000 1.000000 0.000000
vn 0.000000 0.000000 -1.000000
vn 0.000000 0.000000 -1.000000
vn 0.000000 0.000000 -1.000000
vn 0.000000 0.000000 -1.000000
vn 1.000000 0.000000 0.000000
vn 1.000000 0.000000 0.000000
vn 1.000000 0.000000 0.000000
vn 1.000000 0.000000 0.000000
vn -1.000000 0.000000 0.000000
vn -1.000000 0.000000 0.000000
vn -1.000000 0.000000 0.000000
vn -1.000000 0.000000 0.000000
vn 0.000000 0.000000 1.000000
vn 0.000000 0.000000 1.000000
vn 0.000000 0.000000 1.000000
vn 0.000000 0.000000 1.000000
vn 0.000000 1.000000 0.000000
vn 0.000000 1.000000 0.000000
vn 0.000000 1.000000 0.000000
vn 0.000000 1.000000 0.000000
vn 0.000000 0.000000 -1.000000
vn 0.000000 0.000000 -1.000000
vn 0.000000 0.000000 -1.000000
vn 0.000000 0.000000 -1.000000
vn 1.000000 0.000000 0.000000
vn 1.000000 0.000000 0.000000
vn 1.000000 0.000000 0.000000
vn 1.000000 0.000000 0.000000
vn -1.000000 0.000000 0.000000
vn -1.000000 0.000000 0.000000
vn -1.000000 0.000000 0.000000
vn -1.000000 0.000000 0.000000
vn 0.000000 0.000000 1.000000
vn 0.000000 0.000000 1.000000
vn 0.000000 0.000000 1.000000
vn 0.000000 0.000000 1.000000
vn 0.000000 1.000000 0.000000
vn 0.000000 1.000000 0.000000
vn 0.000000 1.000000 0.000000
vn 0.000000 1.000000 0.000000
vn 0.000000 0.000000 -1.000000
vn 0.000000 0.000000 -1.000000
vn 0.000000 0.000000 -1.000000
vn 0.000000 0.000000 -1.000000
vn 1.000000 0.000000 0.000000
vn 1.000000 0.000000 0.000000
vn 1.000000 0.000000 0.000000
vn 1.000000 0.000000 0.000000
vn -1.000000 0.000000 0.000000
vn -1.000000 0.000000 0.000000
vn -1.000000 0.000000 0.000000
vn -1.000000 0.000000 0.000000
vn 0.000000 0.000000 1.000000
vn 0.000000 0.000000 1.000000
vn 0.000000 0.000000 1.000000
vn 0.000000 0.000000 1.000000
vn 0.000000 1.000000 0.000000
vn 0.000000 1.000000 0.000000
vn 0.000000 1.000000 0.000000
vn 0.000000 1.000000 0.000000
vn 0.000000 0.000000 -1.000000
vn 0.000000 0.000000 -1.000000
vn 0.000000 0.000000 -1.000000
vn 0.000000 0.000000 -1.000000
vn 1.000000 0.000000 0.000000
vn 1.000000 0.000000 0.000000
vn 1.000000 0.000000 0.000000
vn 1.000000 0.000000 0.000000
vn -1.000000 0.000000 0.000000
vn -1.000000 0.000000 0.000000
vn -1.000000 0.000000 0.000000
vn -1.000000 0.000000 0.000000
vn 0.000000 0.000000 1.000000
vn 0.000000 0.000000 1.000000
vn 0.000000 0.000000 1.000000
vn 0.000000 0.000000 1.000000
vn 0.000000 1.000000 0.000000
vn 0.000000 1.000000 0.000000
vn 0.000000 1.000000 0.000000
vn 0.000000 1.000000 0.000000
vn 0.000000 0.000000 -1.000000
vn 0.000000 0.000000 -1.000000
vn 0.000000 0.000000 -1.000000
vn 0.000000 0.000000 -1.000000
vn 1.000000 0.000000 0.000000
vn 1.000000 0.000000 0.000000
vn 1.000000 0.000000 0.000000
vn 1.000000 0.000000 0.000000
vn -1.000000 0.000000 0.000000
vn -1.000000 0.000000 0.000000
vn -1.000000 0.000000 0.000000
vn -1.000000 0.000000 0.000000
vn 0.000000 0.000000 1.000000
vn 0.000000 0.000000 1.000000
vn 0.000000 0.000000 1.000000
vn 0.000000 0.000000 1.000000
vn 0.000000 1.000000 0.000000
vn 0.000000 1.000000 0.000000
vn 0.000000 1.000000 0.000000
vn 0.000000 1.000000 0.000000
vn 0.000000 0.000000 -1.000000
vn 0.000000 0.000000 -1.000000
vn 0.000000 0.000000 -1.000000
vn 0.000000 0.000000 -1.000000
vn 0.000000 -1.000000 0.000000
vn 0.000000 -1.000000 0.000000
vn 0.000000 -1.000000 0.000000
vn 0.000000 -1.000000 0.000000
vn -1.000000 0.000000 0.000000
vn -1.000000 0.000000 0.000000
vn -1.000000 0.000000 0.000000
vn -1.000000 0.000000 0.000000
vn 1.000000 0.000000 0.000000
vn 1.000000 0.000000 0.000000
vn 1.000000 0.000000 0.000000
vn 1.000000 0.000000 0.000000
vn 0.000000 0.000000 1.000000
vn 0.000000 0.000000 1.000000
vn 0.000000 0.000000 1.000000
vn 0.000000 0.000000 1.000000
vn 0.000000 1.000000 0.000000
vn 0.000000 1.000000 0.000000
vn 0.000000 1.000000 0.000000
vn 0.000000 1.000000 0.000000
vn 0.000000 0.000000 -1.000000
vn 0.000000 0.000000 -1.000000
vn 0.000000 0.000000 -1.000000
vn 0.000000 0.000000 -1.000000
vn 0.000000 -1.000000 0.000000
vn 0.000000 -1.000000 0.000000
vn 0.000000 -1.000000 0.000000
vn 0.000000 -1.000000 0.000000
vn 1.000000 0.000000 0.000000
vn 1.000000 0.000000 0.000000
vn 1.000000 0.000000 0.000000
vn 1.000000 0.000000 0.000000
vn -1.000000 0.000000 0.000000
vn -1.000000 0.000000 0.000000
vn -1.000000 0.000000 0.000000
vn -1.000000 0.000000 0.000000
vn 0.000000 0.000000 1.000000
vn 0.000000 0.000000 1.000000
vn 0.000000 0.000000 1.000000
vn 0.000000 0.000000 1.000000
vn 0.000000 0.000000 1.000000
vn 0.000000 1.000000 0.000000
vn 0.000000 1.000000 0.000000
vn 0.000000 1.000000 0.000000
vn 0.000000 1.000000 0.000000
vn 0.000000 0.000000 -1.000000
vn 0.000000 0.000000 -1.000000
vn 0.000000 0.000000 -1.000000
vn 0.000000 0.000000 -1.000000
vn 0.368265 0.929721 0.000000
vn 0.368265 0.929721 0.000000
vn 0.368265 0.929721 0.000000
vn 0.368265 0.929721 0.000000
vn -0.368265 0.929721 0.000000
vn -0.368265 0.929721 0.000000
vn -0.368265 0.929721 0.000000
vn -0.368265 0.929721 0.000000
s 1
g SM_Env_Track_Straight_01:Mesh
usemtl initialShadingGroup
f 1/1/1 2/2/2 3/4/3
f 3/4/3 2/2/2 4/3/4
s 2
f 3/5/5 4/6/6 5/8/7
f 5/8/7 4/6/6 6/7/8
s 3
f 5/9/9 6/10/10 7/12/11
f 7/12/11 6/10/10 8/11/12
s 4
f 2/13/13 8/14/14 4/16/15
f 4/16/15 8/14/14 6/15/16
s 5
f 7/17/17 1/18/18 5/20/19
f 5/20/19 1/18/18 3/19/20
s 6
f 9/21/21 10/22/22 11/24/23
f 11/24/23 10/22/22 12/23/24
s 7
f 11/25/25 12/26/26 13/28/27
f 13/28/27 12/26/26 14/27/28
s 8
f 13/29/29 14/30/30 15/32/31
f 15/32/31 14/30/30 16/31/32
s 9
f 10/33/33 16/34/34 12/36/35
f 12/36/35 16/34/34 14/35/36
s 10
f 15/37/37 9/38/38 13/40/39
f 13/40/39 9/38/38 11/39/40
s 11
f 17/41/41 18/42/42 19/44/43
f 19/44/43 18/42/42 20/43/44
s 12
f 19/45/45 20/46/46 21/48/47
f 21/48/47 20/46/46 22/47/48
s 13
f 21/49/49 22/50/50 23/52/51
f 23/52/51 22/50/50 24/51/52
s 14
f 18/53/53 24/54/54 20/56/55
f 20/56/55 24/54/54 22/55/56
s 15
f 23/57/57 17/58/58 21/60/59
f 21/60/59 17/58/58 19/59/60
s 16
f 25/61/61 26/62/62 27/64/63
f 27/64/63 26/62/62 28/63/64
s 17
f 27/65/65 28/66/66 29/68/67
f 29/68/67 28/66/66 30/67/68
s 18
f 29/69/69 30/70/70 31/72/71
f 31/72/71 30/70/70 32/71/72
s 19
f 26/73/73 32/74/74 28/76/75
f 28/76/75 32/74/74 30/75/76
s 20
f 31/77/77 25/78/78 29/80/79
f 29/80/79 25/78/78 27/79/80
s 21
f 33/81/81 34/82/82 35/84/83
f 35/84/83 34/82/82 36/83/84
s 22
f 35/85/85 36/86/86 37/88/87
f 37/88/87 36/86/86 38/87/88
s 23
f 37/89/89 38/90/90 39/92/91
f 39/92/91 38/90/90 40/91/92
s 24
f 34/93/93 40/94/94 36/96/95
f 36/96/95 40/94/94 38/95/96
s 25
f 39/97/97 33/98/98 37/100/99
f 37/100/99 33/98/98 35/99/100
s 26
f 41/101/101 42/102/102 43/104/103
f 43/104/103 42/102/102 44/103/104
s 27
f 43/105/105 44/106/106 45/108/107
f 45/108/107 44/106/106 46/107/108
s 28
f 45/109/109 46/110/110 47/112/111
f 47/112/111 46/110/110 48/111/112
s 29
f 42/113/113 48/114/114 44/116/115
f 44/116/115 48/114/114 46/115/116
s 30
f 47/117/117 41/118/118 45/120/119
f 45/120/119 41/118/118 43/119/120
s 31
f 49/121/121 50/122/122 51/124/123
f 51/124/123 50/122/122 52/123/124
s 32
f 51/125/125 52/126/126 53/128/127
f 53/128/127 52/126/126 54/127/128
s 33
f 53/129/129 54/130/130 55/132/131
f 55/132/131 54/130/130 56/131/132
s 34
f 50/133/133 56/134/134 52/136/135
f 52/136/135 56/134/134 54/135/136
s 35
f 55/137/137 49/138/138 53/140/139
f 53/140/139 49/138/138 51/139/140
s 36
f 57/141/141 58/142/142 59/144/143
f 59/144/143 58/142/142 60/143/144
s 37
f 59/145/145 60/146/146 61/148/147
f 61/148/147 60/146/146 62/147/148
s 38
f 61/149/149 62/150/150 63/152/151
f 63/152/151 62/150/150 64/151/152
s 39
f 58/153/153 64/154/154 60/156/155
f 60/156/155 64/154/154 62/155/156
s 40
f 63/157/157 57/158/158 61/160/159
f 61/160/159 57/158/158 59/159/160
s 41
f 65/161/161 66/162/162 67/164/163
f 67/164/163 66/162/162 68/163/164
s 42
f 67/165/165 68/166/166 69/168/167
f 69/168/167 68/166/166 70/167/168
s 43
f 69/169/169 70/170/170 71/172/171
f 71/172/171 70/170/170 72/171/172
s 44
f 66/173/173 72/174/174 68/176/175
f 68/176/175 72/174/174 70/175/176
s 45
f 71/177/177 65/178/178 69/180/179
f 69/180/179 65/178/178 67/179/180
s 46
f 73/181/181 75/182/182 74/184/183
f 74/184/183 75/182/182 76/183/184
s 47
f 75/185/185 77/186/186 76/188/187
f 76/188/187 77/186/186 78/187/188
s 48
f 77/189/189 79/190/190 78/192/191
f 78/192/191 79/190/190 80/191/192
s 49
f 79/193/193 73/194/194 80/196/195
f 80/196/195 73/194/194 74/195/196
s 50
f 74/197/197 76/198/198 80/200/199
f 80/200/199 76/198/198 78/199/200
s 51
f 79/201/201 77/202/202 73/204/203
f 73/204/203 77/202/202 75/203/204
s 52
f 81/205/205 82/206/206 83/208/207
f 83/208/207 82/206/206 84/207/208
s 53
f 83/209/209 84/210/210 85/212/211
f 85/212/211 84/210/210 86/211/212
s 54
f 85/213/213 86/214/214 87/216/215
f 87/216/215 86/214/214 88/215/216
s 55
f 87/217/217 88/218/218 81/220/219
f 81/220/219 88/218/218 82/219/220
s 56
f 82/221/221 88/222/222 84/224/223
f 84/224/223 88/222/222 86/223/224
s 57
f 87/225/225 81/226/226 85/228/227
f 85/228/227 81/226/226 83/227/228
s 58
f 89/229/229 97/230/230 91/233/231
f 90/231/232 92/232/233 97/230/230
f 97/230/230 92/232/233 91/233/231
s 59
f 91/234/234 92/235/235 93/237/236
f 93/237/236 92/235/235 94/236/237
s 60
f 93/238/238 94/239/239 95/241/240
f 95/241/240 94/239/239 96/240/241
s 61
f 90/242/242 96/243/243 92/245/244
f 92/245/244 96/243/243 94/244/245
s 62
f 95/246/246 89/247/247 93/249/248
f 93/249/248 89/247/247 91/248/249
