# This file uses centimeters as units for non-parametric coordinates.

mtllib SM_Env_Tree_04.mtl
g default
v -0.312677 0.000000 0.312678
v 0.312677 0.000000 0.312678
v -0.312677 3.041091 0.312678
v 0.312677 3.041091 0.312678
v -0.312677 3.041091 -0.312678
v 0.312677 3.041091 -0.312678
v -0.312677 0.000000 -0.312678
v 0.312677 0.000000 -0.312678
v -1.457155 3.041091 1.457155
v 1.457155 3.041091 1.457155
v 1.457155 3.041091 -1.457155
v -1.457155 3.041091 -1.457155
v -0.780645 4.913256 0.780644
v 0.780645 4.913256 0.780644
v 0.780645 4.913256 -0.780644
v -0.780645 4.913256 -0.780644
v -1.152706 4.913256 1.152707
v 1.152706 4.913256 1.152707
v 1.152706 4.913256 -1.152706
v -1.152706 4.913256 -1.152706
v -0.526272 6.941681 0.526272
v 0.526272 6.941681 0.526272
v 0.526272 6.941681 -0.526271
v -0.526272 6.941681 -0.526271
v -0.832861 6.941681 0.832861
v 0.832861 6.941681 0.832861
v 0.832861 6.941681 -0.832861
v -0.832861 6.941681 -0.832861
v -0.097101 9.509815 0.097100
v 0.097101 9.509815 0.097100
v 0.097101 9.509815 -0.097100
v -0.097101 9.509815 -0.097100
vt 0.328205 0.397201
vt 0.328205 0.397201
vt 0.328205 0.397201
vt 0.328205 0.397201
vt 0.266476 0.286877
vt 0.266476 0.286877
vt 0.266476 0.286877
vt 0.266476 0.286877
vt 0.328205 0.397201
vt 0.328205 0.397201
vt 0.328205 0.397201
vt 0.328205 0.397201
vt 0.328205 0.397200
vt 0.328205 0.397200
vt 0.293104 0.397201
vt 0.293104 0.397201
vt 0.293104 0.397201
vt 0.293104 0.397201
vt 0.293104 0.397201
vt 0.293104 0.397201
vt 0.293104 0.397201
vt 0.293104 0.397201
vt 0.169765 0.286877
vt 0.169765 0.286877
vt 0.169765 0.286877
vt 0.169765 0.286877
vt 0.169765 0.286877
vt 0.169765 0.286877
vt 0.169765 0.286877
vt 0.169765 0.286877
vt 0.169765 0.286877
vt 0.169765 0.286877
vt 0.169765 0.286877
vt 0.169765 0.286877
vt 0.169765 0.286877
vt 0.169765 0.286877
vt 0.169765 0.286877
vt 0.169765 0.286877
vt 0.266476 0.286877
vt 0.266476 0.286877
vt 0.266476 0.286877
vt 0.266476 0.286877
vt 0.231376 0.286877
vt 0.231376 0.286877
vt 0.231376 0.286877
vt 0.231376 0.286877
vt 0.266476 0.286877
vt 0.266476 0.286877
vt 0.266476 0.286877
vt 0.266476 0.286877
vt 0.231376 0.286877
vt 0.231376 0.286877
vt 0.231376 0.286877
vt 0.231376 0.286877
vt 0.169765 0.286877
vt 0.169765 0.286877
vt 0.169765 0.286877
vt 0.169765 0.286877
vt 0.169765 0.286877
vt 0.169765 0.286877
vt 0.169765 0.286877
vt 0.169765 0.286877
vt 0.169765 0.286877
vt 0.169765 0.286877
vt 0.169765 0.286877
vt 0.169765 0.286877
vt 0.169765 0.286877
vt 0.169765 0.286877
vt 0.169765 0.286877
vt 0.169765 0.286877
vt 0.266476 0.286877
vt 0.266476 0.286877
vt 0.266476 0.286877
vt 0.266476 0.286877
vt 0.231376 0.286877
vt 0.231376 0.286877
vt 0.231376 0.286877
vt 0.231376 0.286877
vt 0.266476 0.286877
vt 0.266476 0.286877
vt 0.266476 0.286877
vt 0.266476 0.286877
vt 0.231376 0.286877
vt 0.231376 0.286877
vt 0.231376 0.286877
vt 0.231376 0.286877
vt 0.169765 0.286877
vt 0.169765 0.286877
vt 0.169765 0.286877
vt 0.169765 0.286877
vt 0.169765 0.286877
vt 0.169765 0.286877
vt 0.169765 0.286877
vt 0.169765 0.286877
vt 0.169765 0.286877
vt 0.169765 0.286877
vt 0.169765 0.286877
vt 0.169765 0.286877
vt 0.169765 0.286877
vt 0.169765 0.286877
vt 0.169765 0.286877
vt 0.169765 0.286877
vt 0.266476 0.286877
vt 0.266476 0.286877
vt 0.231376 0.286877
vt 0.231376 0.286877
vt 0.231376 0.286877
vt 0.231376 0.286877
vt 0.266476 0.286877
vt 0.266476 0.286877
vt 0.231376 0.286877
vt 0.231376 0.286877
vt 0.231376 0.286877
vt 0.231376 0.286877
vn 0.000000 0.000000 1.000000
vn 0.000000 0.000000 1.000000
vn 0.000000 0.000000 1.000000
vn 0.000000 0.000000 1.000000
vn 0.000000 1.000000 0.000000
vn 0.000000 1.000000 0.000000
vn 0.000000 1.000000 0.000000
vn 0.000000 1.000000 0.000000
vn 0.000000 0.000000 -1.000000
vn 0.000000 0.000000 -1.000000
vn 0.000000 0.000000 -1.000000
vn 0.000000 0.000000 -1.000000
vn 0.000000 -1.000000 0.000000
vn 0.000000 -1.000000 0.000000
vn 0.000000 -1.000000 0.000000
vn 0.000000 -1.000000 0.000000
vn 1.000000 0.000000 0.000000
vn 1.000000 0.000000 0.000000
vn 1.000000 0.000000 0.000000
vn 1.000000 0.000000 0.000000
vn -1.000000 0.000000 0.000000
vn -1.000000 0.000000 0.000000
vn -1.000000 0.000000 0.000000
vn -1.000000 0.000000 0.000000
vn 0.000000 -1.000000 0.000000
vn 0.000000 -1.000000 0.000000
vn 0.000000 -1.000000 0.000000
vn 0.000000 -1.000000 0.000000
vn 0.000000 -1.000000 0.000000
vn 0.000000 -1.000000 0.000000
vn 0.000000 -1.000000 0.000000
vn 0.000000 -1.000000 0.000000
vn 0.000000 -1.000000 0.000000
vn 0.000000 -1.000000 0.000000
vn 0.000000 -1.000000 0.000000
vn 0.000000 -1.000000 0.000000
vn 0.000000 -1.000000 0.000000
vn 0.000000 -1.000000 0.000000
vn 0.000000 -1.000000 0.000000
vn 0.000000 -1.000000 0.000000
vn 0.000000 0.339845 0.940481
vn 0.000000 0.339845 0.940481
vn 0.000000 0.339845 0.940481
vn 0.000000 0.339845 0.940481
vn 0.940482 0.339845 0.000000
vn 0.940482 0.339845 0.000000
vn 0.940482 0.339845 0.000000
vn 0.940482 0.339845 0.000000
vn 0.000000 0.339845 -0.940481
vn 0.000000 0.339845 -0.940481
vn 0.000000 0.339845 -0.940481
vn 0.000000 0.339845 -0.940481
vn -0.940482 0.339845 0.000000
vn -0.940482 0.339845 0.000000
vn -0.940482 0.339845 0.000000
vn -0.940482 0.339845 0.000000
vn 0.000000 -1.000000 0.000000
vn 0.000000 -1.000000 0.000000
vn 0.000000 -1.000000 0.000000
vn 0.000000 -1.000000 0.000000
vn 0.000000 -1.000000 0.000000
vn 0.000000 -1.000000 0.000000
vn 0.000000 -1.000000 0.000000
vn 0.000000 -1.000000 0.000000
vn 0.000000 -1.000000 0.000000
vn 0.000000 -1.000000 0.000000
vn 0.000000 -1.000000 0.000000
vn 0.000000 -1.000000 0.000000
vn 0.000000 -1.000000 0.000000
vn 0.000000 -1.000000 0.000000
vn 0.000000 -1.000000 0.000000
vn 0.000000 -1.000000 0.000000
vn 0.000000 0.295077 0.955473
vn 0.000000 0.295077 0.955473
vn 0.000000 0.295077 0.955473
vn 0.000000 0.295077 0.955473
vn 0.955473 0.295077 0.000000
vn 0.955473 0.295077 0.000000
vn 0.955473 0.295077 0.000000
vn 0.955473 0.295077 0.000000
vn 0.000000 0.295077 -0.955473
vn 0.000000 0.295077 -0.955473
vn 0.000000 0.295077 -0.955473
vn 0.000000 0.295077 -0.955473
vn -0.955473 0.295077 0.000000
vn -0.955473 0.295077 0.000000
vn -0.955473 0.295077 0.000000
vn -0.955473 0.295077 0.000000
vn 0.000000 -1.000000 0.000001
vn 0.000000 -1.000000 0.000001
vn 0.000000 -1.000000 0.000001
vn 0.000000 -1.000000 0.000001
vn 0.000000 -1.000000 0.000000
vn 0.000000 -1.000000 0.000000
vn 0.000000 -1.000000 0.000000
vn 0.000000 -1.000000 0.000000
vn 0.000000 -1.000000 -0.000001
vn 0.000000 -1.000000 -0.000001
vn 0.000000 -1.000000 -0.000001
vn 0.000000 -1.000000 -0.000001
vn 0.000000 -1.000000 0.000000
vn 0.000000 -1.000000 0.000000
vn 0.000000 -1.000000 0.000000
vn 0.000000 -1.000000 0.000000
vn 0.000000 0.275416 0.961325
vn 0.000000 0.275416 0.961325
vn 0.000000 0.275416 0.961325
vn 0.000000 0.275416 0.961325
vn 0.961325 0.275416 0.000000
vn 0.961325 0.275416 0.000000
vn 0.961325 0.275416 0.000000
vn 0.961325 0.275416 0.000000
vn 0.000000 0.275416 -0.961325
vn 0.000000 0.275416 -0.961325
vn 0.000000 0.275416 -0.961325
vn 0.000000 0.275416 -0.961325
vn -0.961325 0.275416 0.000000
vn -0.961325 0.275416 0.000000
vn -0.961325 0.275416 0.000000
vn -0.961325 0.275416 0.000000
s 1
g SM_Env_Tree_04:Mesh
usemtl initialShadingGroup
f 1/1/1 2/2/2 3/4/3
f 3/4/3 2/2/2 4/3/4
s 2
f 29/5/5 30/6/6 32/8/7
f 32/8/7 30/6/6 31/7/8
s 3
f 5/9/9 6/10/10 7/12/11
f 7/12/11 6/10/10 8/11/12
s 4
f 7/12/13 8/11/14 1/14/15
f 1/14/15 8/11/14 2/13/16
s 5
f 2/15/17 8/16/18 4/18/19
f 4/18/19 8/16/18 6/17/20
s 6
f 7/19/21 1/20/22 5/22/23
f 5/22/23 1/20/22 3/21/24
s 7
f 3/23/25 4/24/26 9/26/27
f 9/26/27 4/24/26 10/25/28
s 8
f 4/27/29 6/28/30 10/30/31
f 10/30/31 6/28/30 11/29/32
s 9
f 6/31/33 5/32/34 11/34/35
f 11/34/35 5/32/34 12/33/36
s 10
f 5/35/37 3/36/38 12/38/39
f 12/38/39 3/36/38 9/37/40
s 11
f 9/39/41 10/40/42 13/42/43
f 13/42/43 10/40/42 14/41/44
s 12
f 10/43/45 11/44/46 14/46/47
f 14/46/47 11/44/46 15/45/48
s 13
f 11/47/49 12/48/50 15/50/51
f 15/50/51 12/48/50 16/49/52
s 14
f 12/51/53 9/52/54 16/54/55
f 16/54/55 9/52/54 13/53/56
s 15
f 13/55/57 14/56/58 17/58/59
f 17/58/59 14/56/58 18/57/60
s 16
f 14/59/61 15/60/62 18/62/63
f 18/62/63 15/60/62 19/61/64
s 17
f 15/63/65 16/64/66 19/66/67
f 19/66/67 16/64/66 20/65/68
s 18
f 16/67/69 13/68/70 20/70/71
f 20/70/71 13/68/70 17/69/72
s 19
f 17/71/73 18/72/74 21/74/75
f 21/74/75 18/72/74 22/73/76
s 20
f 18/75/77 19/76/78 22/78/79
f 22/78/79 19/76/78 23/77/80
s 21
f 19/79/81 20/80/82 23/82/83
f 23/82/83 20/80/82 24/81/84
s 22
f 20/83/85 17/84/86 24/86/87
f 24/86/87 17/84/86 21/85/88
s 23
f 21/87/89 22/88/90 25/90/91
f 25/90/91 22/88/90 26/89/92
s 24
f 22/91/93 23/92/94 26/94/95
f 26/94/95 23/92/94 27/93/96
s 25
f 23/95/97 24/96/98 27/98/99
f 27/98/99 24/96/98 28/97/100
s 26
f 24/99/101 21/100/102 28/102/103
f 28/102/103 21/100/102 25/101/104
s 27
f 30/6/105 29/5/106 26/104/107
f 25/103/108 26/104/107 29/5/106
s 28
f 31/107/109 30/108/110 27/106/111
f 26/105/112 27/106/111 30/108/110
s 29
f 32/8/113 31/7/114 28/110/115
f 27/109/116 28/110/115 31/7/114
s 30
f 29/113/117 32/114/118 25/112/119
f 28/111/120 25/112/119 32/114/118
