# This file uses centimeters as units for non-parametric coordinates.

mtllib SM_Env_Road_Straight_02.mtl
g default
v -4.999990 0.000000 7.130872
v -4.999990 0.000000 0.000000
v 0.000000 0.000000 0.000000
v -4.999990 0.194796 7.130872
v -4.999990 0.194796 10.000000
v 0.000000 0.194796 10.000000
v -4.999990 0.000000 6.834678
v -2.499995 0.194796 10.000000
v -2.499995 0.194796 7.130872
v -2.499995 0.000000 7.130872
v 0.000000 0.000000 6.834678
v 0.000000 0.194796 7.130872
v 0.000000 0.000000 7.130872
v -4.999990 0.000000 10.000000
v -2.499995 0.000000 10.000000
v 0.000000 0.000000 10.000000
vt 0.925411 0.393365
vt 0.925411 0.393365
vt 0.768910 0.393365
vt 0.768910 0.393365
vt 0.756221 0.214060
vt 0.756221 0.393365
vt 0.747658 0.209146
vt 0.747658 0.393365
vt 0.634287 0.209146
vt 0.634287 0.393365
vt 0.756221 0.214060
vt 0.634287 0.393365
vt 0.747658 0.393365
vt 0.634287 0.209146
vt 0.747658 0.209146
vt 0.756221 0.393365
vt 0.750426 0.245898
vt 0.752537 0.245898
vt 0.750426 0.248010
vt 0.752537 0.248010
vt 0.750426 0.245898
vt 0.752537 0.245898
vt 0.750426 0.248010
vt 0.752537 0.248010
vn 0.000000 1.000000 0.000000
vn 0.000000 1.000000 0.000000
vn 0.000000 1.000000 0.000000
vn 0.000000 1.000000 0.000000
vn 0.000000 1.000000 0.000000
vn 0.000000 1.000000 0.000000
vn 0.000000 0.000000 -1.000000
vn 0.000000 0.000000 -1.000000
vn 0.000000 0.000000 -1.000000
vn 0.000000 0.000000 -1.000000
vn 0.000000 0.000000 -1.000000
vn 0.000000 0.000000 -1.000000
vn 0.000000 1.000000 0.000000
vn 0.000000 1.000000 0.000000
vn 0.000000 1.000000 0.000000
vn 0.000000 1.000000 0.000000
vn 0.000000 1.000000 0.000000
vn 0.000000 1.000000 0.000000
vn 0.000000 1.000000 0.000000
vn 0.000000 1.000000 0.000000
vn 0.000000 1.000000 0.000000
vn 0.000000 1.000000 0.000000
vn 0.000000 1.000000 0.000000
vn 0.000000 1.000000 0.000000
vn 0.000000 1.000000 0.000000
vn 0.000000 1.000000 0.000000
vn 0.000000 1.000000 0.000000
vn 0.000000 0.000000 -1.000000
vn 0.000000 0.000000 -1.000000
vn 0.000000 0.000000 -1.000000
vn 0.000000 0.000000 -1.000000
vn 0.000000 0.000000 -1.000000
vn 0.000000 0.000000 -1.000000
vn 0.000000 0.000000 1.000000
vn 0.000000 0.000000 1.000000
vn 0.000000 0.000000 1.000000
vn 0.000000 0.000000 1.000000
vn 0.000000 0.000000 1.000000
vn 0.000000 0.000000 1.000000
vn 0.000000 0.000000 1.000000
vn 0.000000 0.000000 1.000000
vn 0.000000 0.000000 1.000000
vn 0.000000 0.000000 1.000000
vn 0.000000 0.000000 1.000000
vn 0.000000 0.000000 1.000000
vn 0.000000 1.000000 0.000000
vn 0.000000 1.000000 0.000000
vn 0.000000 1.000000 0.000000
vn 0.000000 1.000000 0.000000
vn 0.000000 1.000000 0.000000
vn 0.000000 1.000000 0.000000
s off
g SM_Env_Road_Straight_02:Mesh
usemtl initialShadingGroup
f 3/1/1 2/2/2 11/3/3
f 11/3/4 2/2/5 7/4/6
f 10/5/7 1/6/8 9/7/9
f 9/7/10 1/6/11 4/8/12
f 8/9/13 9/7/14 5/10/15
f 5/10/16 9/7/17 4/8/18
f 7/4/19 1/6/20 10/11/21
f 6/12/22 12/13/23 8/14/24
f 8/14/25 12/13/26 9/15/27
f 13/16/28 10/11/29 12/13/30
f 12/13/31 10/11/32 9/15/33
f 8/17/34 5/18/35 15/19/36
f 15/19/37 5/18/38 14/20/39
f 6/21/40 8/22/41 16/23/42
f 16/23/43 8/22/44 15/24/45
f 11/3/46 10/11/47 13/16/48
f 7/4/49 10/11/50 11/3/51
