# This file uses centimeters as units for non-parametric coordinates.

mtllib SM_Env_Hills_02.mtl
g default
v -6.156698 0.000000 9.606277
v -3.213905 0.000000 10.865219
v -0.578413 0.000000 10.414871
v 1.814812 0.000000 8.724854
v -9.282644 0.000000 6.782227
v -6.568724 1.798241 7.615250
v -3.377123 3.069862 7.768738
v -0.537432 3.250160 7.640533
v 2.020103 2.653059 7.493225
v 4.389889 0.000000 6.890274
v -9.498980 0.000000 3.944229
v -6.952990 1.956067 4.039520
v -2.715712 4.662284 3.993973
v 0.223631 7.929469 3.922516
v 1.626274 7.934575 4.095917
v 4.714211 3.665160 5.020706
v 7.008717 0.000000 4.460983
v -9.451872 0.000000 1.433685
v -6.839052 2.112922 1.012253
v -2.847469 5.216685 0.604782
v 0.160196 7.931309 1.733200
v 1.619251 7.943151 2.044449
v 4.015594 4.807644 1.639694
v 7.098038 0.000000 1.849274
v -9.426376 0.000000 -0.929855
v -6.594517 2.292607 -1.381241
v -3.590748 4.437120 -2.169800
v -0.291636 6.289404 -1.725693
v 1.898750 5.447611 -1.616882
v 4.702843 5.230304 -1.935013
v 7.013165 4.492293 -1.133896
v 9.479870 0.000000 -0.786377
v -9.414129 0.000000 -3.608841
v -6.436123 2.836858 -4.122620
v -3.415249 4.112262 -4.528549
v -0.502573 0.000000 -4.656021
v 2.170485 4.381167 -4.632706
v 4.466995 5.143588 -4.120178
v 6.863724 5.243259 -3.773346
v 9.498093 0.000000 -3.535416
v -6.310413 0.000000 -6.495468
v -3.400824 0.000000 -6.732971
v 1.949650 0.000000 -5.851501
v 4.288376 5.090434 -5.211044
v 6.834602 5.186372 -5.148224
v 9.498978 0.000000 -5.169907
v 1.779541 0.000000 -8.039444
v 4.262882 3.842410 -7.467239
v 6.835693 3.863092 -7.410919
v 9.482754 0.000000 -7.454636
v 3.822594 0.000000 -10.865219
v 6.417870 0.000000 -10.743713
v 3.006805 5.176925 4.402832
v 1.830791 5.090502 5.290710
v -0.233465 5.141722 5.336243
vt 0.668687 0.012290
vt 0.668687 0.012291
vt 0.668687 0.012290
vt 0.668687 0.012290
vt 0.668687 0.012291
vt 0.668687 0.012290
vt 0.668687 0.012291
vt 0.668687 0.012291
vt 0.668743 0.010198
vt 0.668743 0.010198
vt 0.668743 0.010198
vt 0.668743 0.010198
vt 0.668743 0.010198
vt 0.668743 0.010198
vt 0.668743 0.010198
vt 0.668743 0.010198
vt 0.668743 0.010198
vt 0.668743 0.010198
vt 0.668743 0.010198
vt 0.668743 0.010198
vt 0.668743 0.010198
vt 0.668743 0.010198
vt 0.668743 0.010198
vt 0.668743 0.010198
vt 0.668743 0.010198
vt 0.668743 0.010198
vt 0.668743 0.010198
vt 0.668743 0.010198
vt 0.668743 0.010198
vt 0.668743 0.010198
vt 0.668743 0.010198
vt 0.668743 0.010198
vt 0.668743 0.010198
vt 0.668743 0.010198
vt 0.668743 0.010198
vt 0.668743 0.010198
vt 0.668743 0.010198
vt 0.668743 0.010198
vt 0.668743 0.010198
vt 0.668743 0.010198
vt 0.668743 0.010198
vt 0.668743 0.010198
vt 0.668743 0.010198
vt 0.668743 0.010198
vt 0.668743 0.010198
vt 0.668743 0.010198
vt 0.668743 0.010198
vt 0.668743 0.010198
vt 0.668743 0.010198
vt 0.668743 0.010198
vt 0.668743 0.010198
vt 0.668743 0.010198
vt 0.668743 0.010198
vt 0.668743 0.010198
vt 0.668743 0.010198
vt 0.668743 0.010198
vt 0.668743 0.010198
vt 0.668743 0.010198
vt 0.668743 0.010198
vt 0.668743 0.010198
vt 0.668743 0.010198
vt 0.668743 0.010198
vt 0.668743 0.010198
vt 0.668743 0.010198
vt 0.668743 0.010198
vt 0.668743 0.010198
vt 0.668743 0.010198
vt 0.668743 0.010198
vt 0.668743 0.010198
vt 0.668743 0.010198
vt 0.668743 0.010198
vt 0.668743 0.010198
vt 0.668743 0.010198
vt 0.668743 0.010198
vt 0.668743 0.010198
vt 0.668743 0.010198
vt 0.668743 0.010198
vt 0.668743 0.010198
vt 0.668743 0.010198
vt 0.668743 0.010198
vt 0.668743 0.010198
vt 0.668743 0.010198
vt 0.668743 0.010198
vt 0.668743 0.010198
vt 0.668743 0.010198
vt 0.668743 0.010198
vt 0.668743 0.010198
vt 0.668743 0.010198
vt 0.668743 0.010198
vt 0.668743 0.010198
vt 0.668743 0.010198
vt 0.668743 0.010198
vt 0.668743 0.010198
vt 0.668743 0.010198
vt 0.668743 0.010198
vt 0.668687 0.012290
vt 0.668687 0.012290
vt 0.668687 0.012290
vt 0.668687 0.012290
vt 0.668743 0.010198
vt 0.668743 0.010198
vt 0.668743 0.010198
vt 0.668743 0.010198
vt 0.668743 0.010198
vt 0.668743 0.010198
vt 0.668743 0.010198
vt 0.668743 0.010198
vt 0.668743 0.010198
vt 0.668743 0.010198
vt 0.668743 0.010198
vt 0.668743 0.010198
vt 0.668743 0.010198
vt 0.668743 0.010198
vt 0.668743 0.010198
vt 0.668743 0.010198
vt 0.668743 0.010198
vt 0.668743 0.010198
vt 0.668743 0.010198
vt 0.668743 0.010198
vt 0.668743 0.010198
vt 0.668743 0.010198
vt 0.668743 0.010198
vt 0.668687 0.012290
vt 0.668687 0.012290
vt 0.668687 0.012291
vt 0.668687 0.012291
vt 0.668687 0.012291
vt 0.668687 0.012292
vt 0.668687 0.012290
vt 0.668687 0.012290
vt 0.668687 0.012291
vt 0.668687 0.012291
vt 0.668687 0.012290
vt 0.668687 0.012290
vt 0.673204 0.013781
vt 0.673204 0.013781
vt 0.673204 0.013781
vt 0.668687 0.012291
vt 0.668687 0.012290
vt 0.668687 0.012290
vt 0.668743 0.010198
vt 0.668743 0.010198
vt 0.668743 0.010198
vt 0.668743 0.010198
vt 0.668743 0.010198
vt 0.668743 0.010198
vt 0.668743 0.010198
vt 0.668743 0.010198
vt 0.668743 0.010198
vt 0.668743 0.010198
vt 0.668743 0.010198
vt 0.668743 0.010198
vt 0.668743 0.010198
vt 0.668743 0.010198
vt 0.668743 0.010198
vt 0.668743 0.010198
vn -0.295610 0.673308 0.677695
vn -0.295610 0.673308 0.677695
vn -0.295610 0.673308 0.677695
vn -0.295610 0.673308 0.677695
vn 0.054850 0.680135 0.731032
vn 0.054850 0.680135 0.731032
vn 0.054850 0.680135 0.731032
vn 0.054850 0.680135 0.731032
vn 0.352100 0.515461 0.781233
vn 0.352100 0.515461 0.781233
vn 0.352100 0.515461 0.781233
vn 0.352100 0.515461 0.781233
vn -0.588045 0.805354 0.074884
vn -0.588045 0.805354 0.074884
vn -0.588045 0.805354 0.074884
vn -0.588045 0.805354 0.074884
vn -0.465723 0.864659 0.188327
vn -0.465723 0.864659 0.188327
vn -0.465723 0.864659 0.188327
vn -0.465723 0.864659 0.188327
vn -0.041358 0.923155 0.382196
vn -0.041358 0.923155 0.382196
vn -0.041358 0.923155 0.382196
vn 0.128826 0.713541 0.688668
vn 0.128826 0.713541 0.688668
vn 0.128826 0.713541 0.688668
vn 0.128826 0.713541 0.688668
vn 0.383390 0.651593 0.654552
vn 0.383390 0.651593 0.654552
vn 0.383390 0.651593 0.654553
vn 0.383390 0.651593 0.654552
vn -0.619121 0.785284 0.004238
vn -0.619121 0.785284 0.004238
vn -0.619121 0.785284 0.004238
vn -0.619121 0.785284 0.004238
vn -0.570942 0.815818 0.092018
vn -0.570942 0.815818 0.092018
vn -0.570942 0.815818 0.092018
vn -0.570942 0.815818 0.092018
vn -0.714285 0.693495 0.094142
vn -0.714285 0.693495 0.094142
vn -0.714285 0.693495 0.094142
vn -0.714285 0.693495 0.094142
vn -0.006356 0.999977 0.002561
vn -0.006356 0.999977 0.002561
vn -0.006356 0.999977 0.002561
vn -0.006356 0.999977 0.002561
vn 0.631050 0.765086 0.128138
vn 0.631050 0.765086 0.128138
vn 0.631050 0.765086 0.128138
vn 0.844522 0.535276 0.016183
vn 0.844522 0.535276 0.016183
vn 0.844522 0.535276 0.016183
vn 0.844522 0.535276 0.016183
vn -0.629626 0.776872 -0.006396
vn -0.629626 0.776872 -0.006396
vn -0.629626 0.776872 -0.006396
vn -0.629626 0.776872 -0.006396
vn -0.603515 0.796617 -0.034225
vn -0.603515 0.796617 -0.034225
vn -0.603515 0.796617 -0.034225
vn -0.603515 0.796617 -0.034225
vn -0.473990 0.872563 -0.118184
vn -0.473990 0.872563 -0.118184
vn -0.473990 0.872563 -0.118184
vn 0.246528 0.835334 -0.491366
vn 0.246528 0.835334 -0.491366
vn 0.246528 0.835334 -0.491366
vn 0.246528 0.835334 -0.491366
vn 0.091701 0.986690 0.134292
vn 0.091701 0.986690 0.134292
vn 0.091701 0.986690 0.134292
vn 0.249288 0.954980 0.160840
vn 0.249288 0.954980 0.160840
vn 0.249288 0.954980 0.160840
vn -0.655700 0.753018 0.054967
vn -0.655700 0.753018 0.054967
vn -0.655700 0.753018 0.054967
vn -0.655700 0.753018 0.054967
vn -0.492882 0.870081 0.005160
vn -0.492882 0.870081 0.005160
vn -0.492882 0.870081 0.005160
vn -0.492882 0.870081 0.005160
vn -0.467764 0.870218 -0.154654
vn -0.467764 0.870218 -0.154654
vn -0.467764 0.870218 -0.154654
vn 0.356297 0.890546 -0.282808
vn 0.356297 0.890546 -0.282808
vn 0.356297 0.890546 -0.282808
vn -0.226195 0.911770 -0.342798
vn -0.226195 0.911770 -0.342798
vn -0.226195 0.911771 -0.342798
vn -0.079901 0.957553 0.276963
vn -0.079901 0.957553 0.276963
vn -0.079901 0.957553 0.276963
vn 0.883867 0.465723 0.043382
vn 0.883867 0.465723 0.043382
vn 0.883867 0.465723 0.043382
vn 0.883867 0.465723 0.043382
vn -0.204095 0.535624 -0.819422
vn -0.204095 0.535624 -0.819422
vn -0.204095 0.535624 -0.819422
vn -0.204095 0.535624 -0.819422
vn -0.316191 0.948679 0.005548
vn -0.316191 0.948679 0.005548
vn -0.316191 0.948679 0.005548
vn -0.036072 0.998486 -0.041521
vn -0.036072 0.998486 -0.041521
vn -0.036072 0.998486 -0.041521
vn -0.036072 0.998486 -0.041521
vn 0.891553 0.452600 -0.016921
vn 0.891553 0.452600 -0.016921
vn 0.891553 0.452600 -0.016921
vn 0.891553 0.452600 -0.016921
vn -0.870214 0.482965 -0.097327
vn -0.870214 0.482965 -0.097327
vn -0.870214 0.482965 -0.097327
vn -0.870214 0.482965 -0.097327
vn -0.008291 0.869136 -0.494504
vn -0.008291 0.869136 -0.494504
vn -0.008291 0.869136 -0.494504
vn -0.008291 0.869136 -0.494504
vn 0.852363 0.501355 -0.148729
vn 0.852363 0.501355 -0.148729
vn 0.852363 0.501355 -0.148729
vn 0.852363 0.501355 -0.148729
vn 0.023325 0.656212 -0.754216
vn 0.023325 0.656212 -0.754216
vn 0.023325 0.656212 -0.754216
vn 0.023325 0.656212 -0.754216
vn 0.651994 0.453633 -0.607552
vn 0.651994 0.453633 -0.607552
vn 0.651994 0.453633 -0.607552
vn 0.674225 0.417349 0.609295
vn 0.674225 0.417349 0.609295
vn 0.674225 0.417349 0.609295
vn 0.648883 0.299396 0.699510
vn 0.648883 0.299396 0.699510
vn 0.648883 0.299396 0.699510
vn 0.550488 0.316106 0.772684
vn 0.550488 0.316106 0.772684
vn 0.550488 0.316106 0.772684
vn -0.557440 0.555458 0.617031
vn -0.557440 0.555458 0.617031
vn -0.557440 0.555458 0.617031
vn -0.422830 0.262595 -0.867328
vn -0.422830 0.262595 -0.867328
vn -0.422830 0.262595 -0.867328
vn -0.691515 0.521380 -0.499970
vn -0.691515 0.521380 -0.499970
vn -0.691515 0.521380 -0.499970
vn -0.588527 0.503206 -0.632787
vn -0.588527 0.503206 -0.632787
vn -0.588527 0.503206 -0.632787
vn 0.533604 0.401028 -0.744610
vn 0.533604 0.401028 -0.744610
vn 0.533604 0.401028 -0.744610
vn 0.721338 0.596681 -0.351628
vn 0.721338 0.596681 -0.351628
vn 0.721338 0.596681 -0.351628
vn 0.471997 0.359267 -0.805075
vn 0.471997 0.359267 -0.805075
vn 0.471997 0.359267 -0.805075
vn 0.071844 0.996294 -0.047291
vn 0.071844 0.996294 -0.047291
vn 0.071844 0.996294 -0.047291
vn 0.326249 0.942491 -0.072614
vn 0.326249 0.942491 -0.072614
vn 0.326249 0.942491 -0.072614
vn 0.635663 0.435349 0.637498
vn 0.635663 0.435349 0.637498
vn 0.635663 0.435349 0.637498
vn -0.430841 0.724560 0.537948
vn -0.430841 0.724560 0.537948
vn -0.430841 0.724560 0.537948
vn 0.835360 0.533153 0.133869
vn 0.835360 0.533153 0.133869
vn 0.835360 0.533153 0.133869
vn 0.835360 0.533153 0.133869
vn 0.545826 0.357587 0.757764
vn 0.545826 0.357587 0.757764
vn 0.545826 0.357587 0.757764
vn -0.027835 0.421147 0.906565
vn -0.027835 0.421147 0.906565
vn -0.027835 0.421147 0.906565
vn -0.027835 0.421147 0.906565
vn -0.489778 0.456872 0.742554
vn -0.489778 0.456872 0.742554
vn -0.489778 0.456872 0.742554
vn -0.580687 0.762247 -0.285977
vn -0.580687 0.762247 -0.285977
vn -0.580687 0.762247 -0.285977
vn -0.336310 0.268097 -0.902784
vn -0.336310 0.268097 -0.902784
vn -0.336310 0.268097 -0.902784
vn -0.582468 0.359259 -0.729153
vn -0.582468 0.359259 -0.729153
vn -0.582468 0.359259 -0.729153
vn 0.566005 0.334308 0.753576
vn 0.566005 0.334308 0.753576
vn 0.566005 0.334308 0.753576
s 1
g SM_Env_Hills_02:Mesh
usemtl initialShadingGroup
f 2/2/1 7/3/2 1/1/3
f 1/1/3 7/3/2 6/4/4
s 2
f 2/2/5 3/5/6 7/3/7
f 7/3/7 3/5/6 8/6/8
s 3
f 3/5/9 4/7/10 8/6/11
f 8/6/11 4/7/10 9/8/12
s 4
f 6/10/13 12/11/14 5/9/15
f 5/9/15 12/11/14 11/12/16
s 5
f 6/13/17 7/14/18 12/16/19
f 12/16/19 7/14/18 13/15/20
s off
f 7/17/21 8/18/22 13/19/23
s 6
f 9/21/24 54/22/25 8/20/26
f 8/20/26 54/22/25 55/23/27
s 7
f 9/24/28 16/25/29 54/27/30
f 54/27/30 16/25/29 53/26/31
s 8
f 11/28/32 12/29/33 18/31/34
f 18/31/34 12/29/33 19/30/35
s 9
f 12/32/36 13/33/37 19/35/38
f 19/35/38 13/33/37 20/34/39
s 10
f 14/37/40 21/38/41 13/36/42
f 13/36/42 21/38/41 20/39/43
s 11
f 15/41/44 22/42/45 14/40/46
f 14/40/46 22/42/45 21/43/47
s off
f 23/44/48 53/45/49 16/46/50
s 12
f 17/48/51 24/49/52 16/47/53
f 16/47/53 24/49/52 23/50/54
s 13
f 18/51/55 19/52/56 25/54/57
f 25/54/57 19/52/56 26/53/58
s 14
f 20/56/59 27/57/60 19/55/61
f 19/55/61 27/57/60 26/58/62
s off
f 20/59/63 28/60/64 27/61/65
s 15
f 22/63/66 29/64/67 21/62/68
f 21/62/68 29/64/67 28/65/69
s off
f 29/66/70 23/67/71 30/68/72
f 23/69/73 31/70/74 30/71/75
s 16
f 25/72/76 26/73/77 33/75/78
f 33/75/78 26/73/77 34/74/79
s 17
f 26/76/80 27/77/81 34/79/82
f 34/79/82 27/77/81 35/78/83
s off
f 27/80/84 28/81/85 35/82/86
f 28/83/87 29/84/88 37/85/89
f 29/86/90 38/87/91 37/88/92
f 38/89/93 31/90/94 39/91/95
s 18
f 32/93/96 40/94/97 31/92/98
f 31/92/98 40/94/97 39/95/99
s 19
f 35/97/100 42/98/101 34/96/102
f 34/96/102 42/98/101 41/99/103
s off
f 37/100/104 38/101/105 44/102/106
s 20
f 39/104/107 45/105/108 38/103/109
f 38/103/109 45/105/108 44/106/110
s 21
f 40/108/111 46/109/112 39/107/113
f 39/107/113 46/109/112 45/110/114
s 22
f 44/112/115 48/113/116 43/111/117
f 43/111/117 48/113/116 47/114/118
s 23
f 45/116/119 49/117/120 44/115/121
f 44/115/121 49/117/120 48/118/122
s 24
f 45/119/123 46/120/124 49/122/125
f 49/122/125 46/120/124 50/121/126
s 25
f 49/124/127 52/125/128 48/123/129
f 48/123/129 52/125/128 51/126/130
s off
f 49/124/131 50/127/132 52/125/133
f 24/128/134 32/129/135 31/130/136
f 10/131/137 17/132/138 16/133/139
f 4/7/140 10/131/141 9/8/142
f 5/134/143 1/1/144 6/4/145
f 36/135/146 37/136/147 43/137/148
f 47/138/149 48/123/150 51/126/151
f 33/139/152 34/96/153 41/99/154
f 35/97/155 36/140/156 42/98/157
f 22/141/158 23/67/159 29/66/160
f 35/82/161 28/81/162 36/142/163
f 29/86/164 30/143/165 38/87/166
f 30/144/167 31/90/168 38/89/169
f 23/69/170 24/145/171 31/70/172
f 13/19/173 8/18/174 55/146/175
s 26
f 15/147/176 53/45/177 22/148/178
f 22/148/178 53/45/177 23/44/179
s off
f 54/27/180 53/26/181 15/149/182
s 27
f 55/23/183 54/22/184 14/151/185
f 14/151/185 54/22/184 15/150/186
s off
f 13/19/187 55/146/188 14/152/189
f 20/59/190 21/153/191 28/60/192
f 37/100/193 44/102/194 43/154/195
f 28/83/196 37/85/197 36/155/198
f 9/24/199 10/156/200 16/25/201
