# This file uses centimeters as units for non-parametric coordinates.

mtllib SM_Env_Tile_Snow_01.mtl
g default
v 0.000000 -0.000001 5.000000
v 5.000000 -0.000001 5.000000
v 0.000000 0.000000 0.000000
v 5.000000 0.000000 0.000000
vt -88.684547 -88.802856
vt 89.843864 -88.802856
vt -89.044823 89.809647
vt 90.045616 89.809647
vn 0.000000 1.000000 0.000000
vn 0.000000 1.000000 0.000000
vn 0.000000 1.000000 0.000000
vn 0.000000 1.000000 0.000000
vn 0.000000 1.000000 0.000000
vn 0.000000 1.000000 0.000000
g SM_Env_Tile_Snow_02:Mesh
usemtl lambert3SG
f 1/1/1 2/2/2 3/3/3
f 3/3/4 2/2/5 4/4/6
