# This file uses centimeters as units for non-parametric coordinates.

mtllib SM_Env_Tile_Grass_01.mtl
g default
v 0.000000 0.000000 5.000000
v 5.000000 0.000000 5.000000
v 0.000000 0.000000 0.000000
v 5.000000 0.000000 0.000000
vt 0.327875 0.288550
vt 0.327875 0.288550
vt 0.327875 0.288550
vt 0.327875 0.288550
vn 0.000000 1.000000 0.000000
vn 0.000000 1.000000 0.000000
vn 0.000000 1.000000 0.000000
vn 0.000000 1.000000 0.000000
s 1
g SM_Env_Tile_Grass_01:Mesh
usemtl initialShadingGroup
f 1/1/1 2/2/2 3/4/3
f 3/4/3 2/2/2 4/3/4
