# This file uses centimeters as units for non-parametric coordinates.

mtllib SM_Env_Track_End_01.mtl
g default
v -3.037212 0.000000 1.184623
v 3.037212 0.000000 1.184623
v -3.037212 2.282699 1.184623
v 3.037212 2.282699 1.184623
v -3.037212 2.282699 -0.101761
v 3.037212 2.282699 -0.101761
v -3.037212 0.000000 -1.886403
v 3.037212 0.000000 -1.886403
v -1.446003 1.251832 1.184623
v 1.446003 1.251832 1.184623
v 1.446003 1.812245 1.184623
v -1.446003 1.812245 1.184623
v -1.012202 1.251832 1.184623
v -1.012202 1.812245 1.184623
v 1.012202 1.251832 1.184623
v 1.012202 1.812245 1.184623
v -1.446003 1.251832 1.530369
v -1.012202 1.251832 1.530369
v -1.012202 1.812245 1.530369
v -1.446003 1.812245 1.530369
v 1.012202 1.251832 1.530369
v 1.012202 1.812245 1.530369
v 1.446003 1.251832 1.530369
v 1.446003 1.812245 1.530369
v -1.537488 1.133646 1.530369
v -0.920717 1.133646 1.530369
v -0.920717 1.930431 1.530369
v -1.537488 1.930431 1.530369
v 0.920717 1.133646 1.530369
v 0.920717 1.930431 1.530369
v 1.537488 1.133646 1.530369
v 1.537488 1.930431 1.530369
v -1.537488 1.133646 1.886403
v -0.920717 1.133646 1.886403
v -0.920717 1.930431 1.886403
v -1.537488 1.930431 1.886403
v 0.920717 1.133646 1.886403
v 0.920717 1.930431 1.886403
v 1.537488 1.133646 1.886403
v 1.537488 1.930431 1.886403
v 0.000000 0.000000 1.184623
vt 0.294527 0.061277
vt 0.294527 0.061277
vt 0.294527 0.061277
vt 0.294527 0.061277
vt 0.385330 0.061277
vt 0.385330 0.061277
vt 0.385330 0.061277
vt 0.385330 0.061277
vt 0.363577 0.061277
vt 0.363577 0.061277
vt 0.363577 0.061277
vt 0.363577 0.061277
vt 0.257731 0.061277
vt 0.257731 0.061277
vt 0.257731 0.061277
vt 0.257731 0.061277
vt 0.257731 0.061277
vt 0.330486 0.061277
vt 0.330486 0.061277
vt 0.330486 0.061277
vt 0.330486 0.061277
vt 0.330486 0.061277
vt 0.330487 0.061277
vt 0.330487 0.061277
vt 0.330486 0.061277
vt 0.294527 0.061277
vt 0.294527 0.061277
vt 0.294527 0.061277
vt 0.294527 0.061277
vt 0.294527 0.061277
vt 0.294527 0.061277
vt 0.294527 0.061277
vt 0.294527 0.061277
vt 0.294527 0.061277
vt 0.202358 0.087362
vt 0.202358 0.087362
vt 0.202358 0.087362
vt 0.202358 0.087362
vt 0.202358 0.087362
vt 0.202358 0.087362
vt 0.202358 0.087362
vt 0.202358 0.087362
vt 0.139538 0.087362
vt 0.139538 0.087362
vt 0.139538 0.087362
vt 0.139538 0.087362
vt 0.176183 0.087362
vt 0.176183 0.087362
vt 0.176183 0.087362
vt 0.176183 0.087362
vt 0.235077 0.087362
vt 0.235077 0.087362
vt 0.235077 0.087362
vt 0.235077 0.087362
vt 0.176183 0.087362
vt 0.176183 0.087362
vt 0.176183 0.087362
vt 0.176183 0.087362
vt 0.176183 0.087362
vt 0.176183 0.087362
vt 0.176183 0.087362
vt 0.176183 0.087362
vt 0.139538 0.087362
vt 0.139538 0.087362
vt 0.139538 0.087362
vt 0.139538 0.087362
vt 0.176183 0.087362
vt 0.176183 0.087362
vt 0.176183 0.087362
vt 0.176183 0.087362
vt 0.235077 0.087362
vt 0.235077 0.087362
vt 0.235077 0.087362
vt 0.235077 0.087362
vt 0.202358 0.087362
vt 0.202358 0.087362
vt 0.202358 0.087362
vt 0.202358 0.087362
vt 0.202358 0.087362
vt 0.202358 0.087362
vt 0.202358 0.087362
vt 0.202358 0.087362
vt 0.202358 0.087362
vt 0.202358 0.087362
vt 0.202358 0.087362
vt 0.202358 0.087362
vt 0.202358 0.087362
vt 0.202358 0.087362
vt 0.202358 0.087362
vt 0.202358 0.087362
vt 0.202358 0.087362
vt 0.202358 0.087362
vt 0.202358 0.087362
vt 0.202358 0.087362
vt 0.202358 0.087362
vt 0.202358 0.087362
vt 0.202358 0.087362
vt 0.202358 0.087362
vt 0.202358 0.087362
vt 0.202358 0.087362
vt 0.202358 0.087362
vt 0.202358 0.087362
vt 0.202358 0.087362
vt 0.202358 0.087362
vt 0.202358 0.087362
vt 0.202358 0.087362
vt 0.139538 0.087362
vt 0.139538 0.087362
vt 0.139538 0.087362
vt 0.139538 0.087362
vt 0.176183 0.087362
vt 0.176183 0.087362
vt 0.176183 0.087362
vt 0.176183 0.087362
vt 0.235077 0.087362
vt 0.235077 0.087362
vt 0.235077 0.087362
vt 0.235077 0.087362
vt 0.176183 0.087362
vt 0.176183 0.087362
vt 0.176183 0.087362
vt 0.176183 0.087362
vt 0.176183 0.087362
vt 0.176183 0.087362
vt 0.176183 0.087362
vt 0.176183 0.087362
vt 0.139538 0.087362
vt 0.139538 0.087362
vt 0.139538 0.087362
vt 0.139538 0.087362
vt 0.176183 0.087362
vt 0.176183 0.087362
vt 0.176183 0.087362
vt 0.176183 0.087362
vt 0.235077 0.087362
vt 0.235077 0.087362
vt 0.235077 0.087362
vt 0.235077 0.087362
vn 0.000000 0.000000 1.000000
vn 0.000000 0.000000 1.000000
vn 0.000000 0.000000 1.000000
vn 0.000000 0.000000 1.000000
vn 0.000000 1.000000 0.000000
vn 0.000000 1.000000 0.000000
vn 0.000000 1.000000 0.000000
vn 0.000000 1.000000 0.000000
vn 0.000000 0.615919 -0.787809
vn 0.000000 0.615919 -0.787809
vn 0.000000 0.615919 -0.787809
vn 0.000000 0.615919 -0.787809
vn 0.000000 -1.000000 0.000000
vn 0.000000 -1.000000 0.000000
vn 0.000000 -1.000000 0.000000
vn 0.000000 -1.000000 0.000000
vn 0.000000 -1.000000 0.000000
vn 1.000000 0.000000 0.000000
vn 1.000000 0.000000 0.000000
vn 1.000000 0.000000 0.000000
vn 1.000000 0.000000 0.000000
vn -1.000000 0.000000 0.000000
vn -1.000000 0.000000 0.000000
vn -1.000000 0.000000 0.000000
vn -1.000000 0.000000 0.000000
vn 0.000000 0.000000 1.000000
vn 0.000000 0.000000 1.000000
vn 0.000000 0.000000 1.000000
vn 0.000000 0.000000 1.000000
vn 0.000000 0.000000 1.000000
vn 0.000000 0.000000 1.000000
vn 0.000000 0.000000 1.000000
vn 0.000000 0.000000 1.000000
vn 0.000000 0.000000 1.000000
vn 0.000000 0.000000 1.000000
vn 0.000000 0.000000 1.000000
vn 0.000000 0.000000 1.000000
vn 0.000000 0.000000 1.000000
vn 0.000000 0.000000 1.000000
vn 0.000000 0.000000 1.000000
vn 0.000000 0.000000 1.000000
vn 0.000000 0.000000 1.000000
vn 0.000000 0.000000 1.000000
vn 0.000000 0.000000 1.000000
vn 0.000000 0.000000 1.000000
vn 0.000000 0.000000 1.000000
vn 0.000000 0.000000 1.000000
vn 0.000000 0.000000 1.000000
vn 0.000000 0.000000 1.000000
vn 0.000000 0.000000 1.000000
vn 0.000000 0.000000 1.000000
vn 0.000000 0.000000 1.000000
vn 0.000000 0.000000 1.000000
vn 0.000000 0.000000 1.000000
vn 0.000000 -1.000000 0.000000
vn 0.000000 -1.000000 0.000000
vn 0.000000 -1.000000 0.000000
vn 0.000000 -1.000000 0.000000
vn 1.000000 0.000000 0.000000
vn 1.000000 0.000000 0.000000
vn 1.000000 0.000000 0.000000
vn 1.000000 0.000000 0.000000
vn 0.000000 1.000000 0.000000
vn 0.000000 1.000000 0.000000
vn 0.000000 1.000000 0.000000
vn 0.000000 1.000000 0.000000
vn -1.000000 0.000000 0.000000
vn -1.000000 0.000000 0.000000
vn -1.000000 0.000000 0.000000
vn -1.000000 0.000000 0.000000
vn -1.000000 0.000000 0.000000
vn -1.000000 0.000000 0.000000
vn -1.000000 0.000000 0.000000
vn -1.000000 0.000000 0.000000
vn 0.000000 -1.000000 0.000000
vn 0.000000 -1.000000 0.000000
vn 0.000000 -1.000000 0.000000
vn 0.000000 -1.000000 0.000000
vn 1.000000 0.000000 0.000000
vn 1.000000 0.000000 0.000000
vn 1.000000 0.000000 0.000000
vn 1.000000 0.000000 0.000000
vn 0.000000 1.000000 0.000000
vn 0.000000 1.000000 0.000000
vn 0.000000 1.000000 0.000000
vn 0.000000 1.000000 0.000000
vn 0.000000 0.000000 -1.000000
vn 0.000000 0.000000 -1.000000
vn 0.000000 0.000000 -1.000000
vn 0.000000 0.000000 -1.000000
vn 0.000001 0.000000 -1.000000
vn 0.000001 0.000000 -1.000000
vn 0.000001 0.000000 -1.000000
vn 0.000001 0.000000 -1.000000
vn 0.000000 0.000000 -1.000000
vn 0.000000 0.000000 -1.000000
vn 0.000000 0.000000 -1.000000
vn 0.000000 0.000000 -1.000000
vn 0.000000 0.000000 -1.000000
vn 0.000000 0.000000 -1.000000
vn 0.000000 0.000000 -1.000000
vn 0.000000 0.000000 -1.000000
vn 0.000000 0.000000 -1.000000
vn 0.000000 0.000000 -1.000000
vn 0.000000 0.000000 -1.000000
vn 0.000000 0.000000 -1.000000
vn 0.000000 0.000000 -1.000000
vn 0.000000 0.000000 -1.000000
vn 0.000000 0.000000 -1.000000
vn 0.000000 0.000000 -1.000000
vn 0.000001 0.000000 -1.000000
vn 0.000001 0.000000 -1.000000
vn 0.000001 0.000000 -1.000000
vn 0.000001 0.000000 -1.000000
vn 0.000000 0.000000 -1.000000
vn 0.000000 0.000000 -1.000000
vn 0.000000 0.000000 -1.000000
vn 0.000000 0.000000 -1.000000
vn 0.000000 -1.000000 0.000000
vn 0.000000 -1.000000 0.000000
vn 0.000000 -1.000000 0.000000
vn 0.000000 -1.000000 0.000000
vn 1.000000 0.000000 0.000000
vn 1.000000 0.000000 0.000000
vn 1.000000 0.000000 0.000000
vn 1.000000 0.000000 0.000000
vn 0.000000 1.000000 0.000000
vn 0.000000 1.000000 0.000000
vn 0.000000 1.000000 0.000000
vn 0.000000 1.000000 0.000000
vn -1.000000 0.000000 0.000000
vn -1.000000 0.000000 0.000000
vn -1.000000 0.000000 0.000000
vn -1.000000 0.000000 0.000000
vn -1.000000 0.000000 0.000000
vn -1.000000 0.000000 0.000000
vn -1.000000 0.000000 0.000000
vn -1.000000 0.000000 0.000000
vn 0.000000 -1.000000 0.000000
vn 0.000000 -1.000000 0.000000
vn 0.000000 -1.000000 0.000000
vn 0.000000 -1.000000 0.000000
vn 1.000000 0.000000 0.000000
vn 1.000000 0.000000 0.000000
vn 1.000000 0.000000 0.000000
vn 1.000000 0.000000 0.000000
vn 0.000000 1.000000 0.000000
vn 0.000000 1.000000 0.000000
vn 0.000000 1.000000 0.000000
vn 0.000000 1.000000 0.000000
s 1
g SM_Env_Track_End_01:Mesh
usemtl initialShadingGroup
f 15/1/1 16/2/2 13/4/3
f 13/4/3 16/2/2 14/3/4
s 2
f 3/5/5 4/6/6 5/8/7
f 5/8/7 4/6/6 6/7/8
s 3
f 5/9/9 6/10/10 7/12/11
f 7/12/11 6/10/10 8/11/12
s 4
f 7/13/13 8/14/14 1/17/15
f 1/17/15 8/14/14 41/16/16
f 8/14/14 2/15/17 41/16/16
s 5
f 8/19/18 6/20/19 2/18/20
f 2/18/20 6/20/19 4/21/21
s 6
f 7/22/22 1/23/23 5/25/24
f 5/25/24 1/23/23 3/24/25
s 7
f 1/26/26 41/27/27 9/30/28
f 2/28/29 10/29/30 41/27/27
f 10/29/30 15/1/31 41/27/27
f 9/30/28 41/27/27 13/4/32
f 41/27/27 15/1/31 13/4/32
s 9
f 2/28/33 4/31/34 10/29/35
f 10/29/35 4/31/34 11/32/36
s 10
f 4/31/37 3/33/38 11/32/39
f 11/32/39 3/33/38 16/2/40
f 3/33/38 12/34/41 16/2/40
f 12/34/41 14/3/42 16/2/40
s 11
f 1/26/43 9/30/44 3/33/45
f 3/33/45 9/30/44 12/34/46
s 12
f 33/35/47 34/36/48 36/38/49
f 36/38/49 34/36/48 35/37/50
s 13
f 38/39/51 37/40/52 40/42/53
f 40/42/53 37/40/52 39/41/54
s 14
f 9/43/55 13/44/56 17/46/57
f 17/46/57 13/44/56 18/45/58
s 15
f 13/47/59 14/48/60 18/50/61
f 18/50/61 14/48/60 19/49/62
s 16
f 14/51/63 12/52/64 19/54/65
f 19/54/65 12/52/64 20/53/66
s 17
f 12/55/67 9/56/68 20/58/69
f 20/58/69 9/56/68 17/57/70
s 18
f 16/59/71 15/60/72 22/62/73
f 22/62/73 15/60/72 21/61/74
s 19
f 15/63/75 10/64/76 21/66/77
f 21/66/77 10/64/76 23/65/78
s 20
f 10/67/79 11/68/80 23/70/81
f 23/70/81 11/68/80 24/69/82
s 21
f 11/71/83 16/72/84 24/74/85
f 24/74/85 16/72/84 22/73/86
s 22
f 17/75/87 18/76/88 25/78/89
f 25/78/89 18/76/88 26/77/90
s 23
f 18/79/91 19/80/92 26/82/93
f 26/82/93 19/80/92 27/81/94
s 24
f 19/83/95 20/84/96 27/86/97
f 27/86/97 20/84/96 28/85/98
s 25
f 20/87/99 17/88/100 28/90/101
f 28/90/101 17/88/100 25/89/102
s 26
f 22/91/103 21/92/104 30/94/105
f 30/94/105 21/92/104 29/93/106
s 27
f 21/95/107 23/96/108 29/98/109
f 29/98/109 23/96/108 31/97/110
s 28
f 23/99/111 24/100/112 31/102/113
f 31/102/113 24/100/112 32/101/114
s 29
f 24/103/115 22/104/116 32/106/117
f 32/106/117 22/104/116 30/105/118
s 30
f 25/107/119 26/108/120 33/110/121
f 33/110/121 26/108/120 34/109/122
s 31
f 26/111/123 27/112/124 34/114/125
f 34/114/125 27/112/124 35/113/126
s 32
f 27/115/127 28/116/128 35/118/129
f 35/118/129 28/116/128 36/117/130
s 33
f 28/119/131 25/120/132 36/122/133
f 36/122/133 25/120/132 33/121/134
s 34
f 30/123/135 29/124/136 38/126/137
f 38/126/137 29/124/136 37/125/138
s 35
f 29/127/139 31/128/140 37/130/141
f 37/130/141 31/128/140 39/129/142
s 36
f 31/131/143 32/132/144 39/134/145
f 39/134/145 32/132/144 40/133/146
s 37
f 32/135/147 30/136/148 40/138/149
f 40/138/149 30/136/148 38/137/150
