# This file uses centimeters as units for non-parametric coordinates.

mtllib SM_Env_Track_RoadCrossing_01.mtl
g default
v -1.180690 0.575857 0.000000
v -1.481140 0.575857 0.000000
v -1.180690 0.771853 0.000000
v -1.481140 0.771853 0.000000
v 1.180689 0.575857 0.000000
v 1.481140 0.575857 0.000000
v 1.180689 0.771853 0.000000
v 1.481140 0.771853 0.000000
v -2.500000 0.000000 0.000000
v 2.500000 0.000000 0.000000
v -1.237700 0.500000 0.000000
v 1.237701 0.500000 0.000000
v -1.180690 0.771853 -20.000000
v -1.481140 0.771853 -20.000000
v -1.180690 0.575857 -20.000000
v -1.481140 0.575857 -20.000000
v 1.180689 0.771853 -20.000000
v 1.481140 0.771853 -20.000000
v 1.180689 0.575857 -20.000000
v 1.481140 0.575857 -20.000000
v -1.237700 0.500000 -20.000000
v 1.237701 0.500000 -20.000000
v -2.500000 0.000000 -20.000000
v 2.500000 0.000000 -20.000000
v -4.999990 -0.194796 -10.000000
v -2.416029 0.500000 -10.000000
v 2.416031 0.500000 -10.000000
v 4.999990 -0.194796 -10.000000
v -4.999990 -0.194796 -2.831998
v -2.416029 0.500000 -2.831998
v 2.416031 0.500000 -2.831998
v 4.999990 -0.194796 -2.831998
v -4.999990 -0.194796 -17.168001
v -2.416029 0.500000 -17.168001
v 2.416031 0.500000 -17.168001
v 4.999990 -0.194796 -17.168001
v -4.999990 -0.194796 -2.584389
v -2.416029 0.500000 -2.584389
v 2.416031 0.500000 -2.584389
v 4.999990 -0.194796 -2.584389
v 4.999990 -0.194796 -17.415609
v 2.416031 0.500000 -17.415611
v -2.416029 0.500000 -17.415611
v -4.999990 -0.194796 -17.415609
v 4.999990 -0.194796 -17.487070
v 2.416031 0.500000 -17.487070
v -2.416029 0.500000 -17.487070
v -4.999990 -0.194796 -17.487070
v -4.999990 -0.194796 -2.512929
v -2.416029 0.500000 -2.512929
v 2.416031 0.500000 -2.512929
v 4.999990 -0.194796 -2.512929
v 4.999990 -0.194796 -3.167616
v 2.416031 0.500000 -3.167616
v -2.416028 0.500000 -3.167616
v -4.999990 -0.194796 -3.167616
v 4.999990 -0.194796 -16.832382
v 2.416031 0.500000 -16.832382
v -2.416029 0.500000 -16.832382
v -4.999990 -0.194796 -16.832382
v 0.000000 0.000000 0.000000
vt 0.140112 0.474238
vt 0.140112 0.474238
vt 0.140112 0.474238
vt 0.140112 0.474238
vt 0.201994 0.470702
vt 0.201994 0.470702
vt 0.201994 0.470702
vt 0.201994 0.470702
vt 0.172821 0.474238
vt 0.172821 0.474238
vt 0.172821 0.474238
vt 0.172821 0.474238
vt 0.140112 0.474238
vt 0.140112 0.474238
vt 0.140112 0.474238
vt 0.140112 0.474238
vt 0.109171 0.474238
vt 0.109171 0.474238
vt 0.109171 0.474238
vt 0.109171 0.474238
vt 0.172821 0.474238
vt 0.172821 0.474238
vt 0.172821 0.474238
vt 0.172821 0.474238
vt 0.230430 0.060263
vt 0.230430 0.060263
vt 0.230430 0.060263
vt 0.230430 0.060263
vt 0.230430 0.060263
vt 0.452137 0.063621
vt 0.452137 0.063621
vt 0.452137 0.063621
vt 0.452137 0.063621
vt 0.140112 0.474238
vt 0.140112 0.474238
vt 0.140112 0.474238
vt 0.140112 0.474238
vt 0.109171 0.474238
vt 0.109171 0.474238
vt 0.109171 0.474238
vt 0.109171 0.474238
vt 0.172821 0.474238
vt 0.172821 0.474238
vt 0.172821 0.474238
vt 0.172821 0.474238
vt 0.201994 0.470702
vt 0.201994 0.470702
vt 0.201994 0.470702
vt 0.201994 0.470702
vt 0.140112 0.474238
vt 0.140112 0.474238
vt 0.140112 0.474238
vt 0.140112 0.474238
vt 0.172821 0.474238
vt 0.172821 0.474238
vt 0.172821 0.474238
vt 0.172821 0.474238
vt 0.487156 0.063621
vt 0.487156 0.063621
vt 0.487156 0.063621
vt 0.487156 0.063621
vt 0.230430 0.060263
vt 0.230430 0.060263
vt 0.230430 0.060263
vt 0.230430 0.060263
vt 0.452137 0.063621
vt 0.452137 0.063621
vt 0.452137 0.063621
vt 0.452137 0.063621
vt 0.202262 0.476975
vt 0.202262 0.476975
vt 0.202262 0.476975
vt 0.202262 0.476975
vt 0.237281 0.476975
vt 0.237281 0.476975
vt 0.237281 0.476975
vt 0.237281 0.476975
vt 0.202262 0.476975
vt 0.202262 0.476975
vt 0.202262 0.476975
vt 0.202262 0.476975
vt 0.452137 0.063621
vt 0.452137 0.063621
vt 0.452137 0.063621
vt 0.452137 0.063621
vt 0.487156 0.063621
vt 0.487156 0.063621
vt 0.487156 0.063621
vt 0.487156 0.063621
vt 0.452137 0.063621
vt 0.452137 0.063621
vt 0.452137 0.063621
vt 0.452137 0.063621
vt 0.138437 0.476975
vt 0.138437 0.476975
vt 0.138437 0.476975
vt 0.138437 0.476975
vt 0.173456 0.476975
vt 0.173456 0.476975
vt 0.173456 0.476975
vt 0.173456 0.476975
vt 0.138437 0.476975
vt 0.138437 0.476975
vt 0.138437 0.476975
vt 0.138437 0.476975
vt 0.296045 0.063621
vt 0.296045 0.063621
vt 0.296045 0.063621
vt 0.296045 0.063621
vt 0.331064 0.063621
vt 0.331064 0.063621
vt 0.331064 0.063621
vt 0.331064 0.063621
vt 0.296045 0.063621
vt 0.296045 0.063621
vt 0.296045 0.063621
vt 0.296045 0.063621
vt 0.296045 0.063621
vt 0.296045 0.063621
vt 0.296045 0.063621
vt 0.296045 0.063621
vt 0.331064 0.063621
vt 0.331064 0.063621
vt 0.331064 0.063621
vt 0.331064 0.063621
vt 0.296045 0.063621
vt 0.296045 0.063621
vt 0.296045 0.063621
vt 0.296045 0.063621
vt 0.388528 0.063621
vt 0.388528 0.063621
vt 0.388528 0.063621
vt 0.388528 0.063621
vt 0.423547 0.063621
vt 0.423547 0.063621
vt 0.423547 0.063621
vt 0.423547 0.063621
vt 0.388528 0.063621
vt 0.388528 0.063621
vt 0.388528 0.063621
vt 0.388528 0.063621
vt 0.388528 0.063621
vt 0.388528 0.063621
vt 0.388528 0.063621
vt 0.388528 0.063621
vt 0.423547 0.063621
vt 0.423547 0.063621
vt 0.423547 0.063621
vt 0.423547 0.063621
vt 0.388528 0.063621
vt 0.388528 0.063621
vt 0.388528 0.063621
vt 0.388528 0.063621
vt 0.138437 0.476975
vt 0.138437 0.476975
vt 0.138437 0.476975
vt 0.138437 0.476975
vt 0.173456 0.476975
vt 0.173456 0.476975
vt 0.173456 0.476975
vt 0.173456 0.476975
vt 0.138437 0.476975
vt 0.138437 0.476975
vt 0.138437 0.476975
vt 0.138437 0.476975
vt 0.202262 0.476975
vt 0.202262 0.476975
vt 0.202262 0.476975
vt 0.202262 0.476975
vt 0.237281 0.476975
vt 0.237281 0.476975
vt 0.237281 0.476975
vt 0.237281 0.476975
vt 0.202262 0.476975
vt 0.202262 0.476975
vt 0.202262 0.476975
vt 0.202262 0.476975
vn 0.000000 0.000000 1.000000
vn 0.000000 0.000000 1.000000
vn 0.000000 0.000000 1.000000
vn 0.000000 0.000000 1.000000
vn 0.000000 1.000000 0.000000
vn 0.000000 1.000000 0.000000
vn 0.000000 1.000000 0.000000
vn 0.000000 1.000000 0.000000
vn -1.000000 0.000000 0.000000
vn -1.000000 0.000000 0.000000
vn -1.000000 0.000000 0.000000
vn -1.000000 0.000000 0.000000
vn 0.000000 0.000000 1.000000
vn 0.000000 0.000000 1.000000
vn 0.000000 0.000000 1.000000
vn 0.000000 0.000000 1.000000
vn 0.000000 -1.000000 0.000000
vn 0.000000 -1.000000 0.000000
vn 0.000000 -1.000000 0.000000
vn 0.000000 -1.000000 0.000000
vn -1.000000 0.000000 0.000000
vn -1.000000 0.000000 0.000000
vn -1.000000 0.000000 0.000000
vn -1.000000 0.000000 0.000000
vn 0.000000 0.000000 1.000000
vn 0.000000 0.000000 1.000000
vn 0.000000 0.000000 1.000000
vn 0.000000 0.000000 1.000000
vn 0.000000 0.000000 1.000000
vn -0.259665 0.965699 0.000000
vn -0.259665 0.965699 0.000000
vn -0.259665 0.965699 0.000000
vn -0.259665 0.965699 0.000000
vn 0.000000 0.000000 -1.000000
vn 0.000000 0.000000 -1.000000
vn 0.000000 0.000000 -1.000000
vn 0.000000 0.000000 -1.000000
vn 0.000000 -1.000000 0.000000
vn 0.000000 -1.000000 0.000000
vn 0.000000 -1.000000 0.000000
vn 0.000000 -1.000000 0.000000
vn 1.000000 0.000000 0.000000
vn 1.000000 0.000000 0.000000
vn 1.000000 0.000000 0.000000
vn 1.000000 0.000000 0.000000
vn 0.000000 1.000000 0.000000
vn 0.000000 1.000000 0.000000
vn 0.000000 1.000000 0.000000
vn 0.000000 1.000000 0.000000
vn 0.000000 0.000000 -1.000000
vn 0.000000 0.000000 -1.000000
vn 0.000000 0.000000 -1.000000
vn 0.000000 0.000000 -1.000000
vn 1.000000 0.000000 0.000000
vn 1.000000 0.000000 0.000000
vn 1.000000 0.000000 0.000000
vn 1.000000 0.000000 0.000000
vn 0.000000 1.000000 0.000000
vn 0.000000 1.000000 0.000000
vn 0.000000 1.000000 0.000000
vn 0.000000 1.000000 0.000000
vn 0.000000 0.000000 -1.000000
vn 0.000000 0.000000 -1.000000
vn 0.000000 0.000000 -1.000000
vn 0.000000 0.000000 -1.000000
vn 0.259665 0.965699 0.000000
vn 0.259665 0.965699 0.000000
vn 0.259665 0.965699 0.000000
vn 0.259665 0.965699 0.000000
vn -0.259665 0.965699 0.000000
vn -0.259665 0.965699 0.000000
vn -0.259665 0.965699 0.000000
vn -0.259665 0.965699 0.000000
vn 0.000000 1.000000 0.000000
vn 0.000000 1.000000 0.000000
vn 0.000000 1.000000 0.000000
vn 0.000000 1.000000 0.000000
vn 0.259665 0.965699 0.000000
vn 0.259665 0.965699 0.000000
vn 0.259665 0.965699 0.000000
vn 0.259665 0.965699 0.000000
vn -0.259665 0.965699 0.000000
vn -0.259665 0.965699 0.000000
vn -0.259665 0.965699 0.000000
vn -0.259665 0.965699 0.000000
vn 0.000000 1.000000 0.000000
vn 0.000000 1.000000 0.000000
vn 0.000000 1.000000 0.000000
vn 0.000000 1.000000 0.000000
vn 0.259665 0.965699 0.000000
vn 0.259665 0.965699 0.000000
vn 0.259665 0.965699 0.000000
vn 0.259665 0.965699 0.000000
vn -0.259665 0.965699 0.000000
vn -0.259665 0.965699 0.000000
vn -0.259665 0.965699 0.000000
vn -0.259665 0.965699 0.000000
vn 0.000000 1.000000 0.000000
vn 0.000000 1.000000 0.000000
vn 0.000000 1.000000 0.000000
vn 0.000000 1.000000 0.000000
vn 0.259665 0.965699 0.000000
vn 0.259665 0.965699 0.000000
vn 0.259665 0.965699 0.000000
vn 0.259665 0.965699 0.000000
vn -0.259665 0.965699 0.000000
vn -0.259665 0.965699 0.000000
vn -0.259665 0.965699 0.000000
vn -0.259665 0.965699 0.000000
vn 0.000000 1.000000 0.000000
vn 0.000000 1.000000 0.000000
vn 0.000000 1.000000 0.000000
vn 0.000000 1.000000 0.000000
vn 0.259665 0.965699 0.000000
vn 0.259665 0.965699 0.000000
vn 0.259665 0.965699 0.000000
vn 0.259665 0.965699 0.000000
vn 0.259661 0.965700 0.000000
vn 0.259661 0.965700 0.000000
vn 0.259661 0.965700 0.000000
vn 0.259661 0.965700 0.000000
vn 0.000000 1.000000 0.000000
vn 0.000000 1.000000 0.000000
vn 0.000000 1.000000 0.000000
vn 0.000000 1.000000 0.000000
vn -0.259661 0.965700 0.000000
vn -0.259661 0.965700 0.000000
vn -0.259661 0.965700 0.000000
vn -0.259661 0.965700 0.000000
vn 0.291958 0.939863 -0.177250
vn 0.291958 0.939863 -0.177250
vn 0.291958 0.939863 -0.177250
vn 0.291958 0.939863 -0.177250
vn 0.000000 1.000000 0.000000
vn 0.000000 1.000000 0.000000
vn 0.000000 1.000000 0.000000
vn 0.000000 1.000000 0.000000
vn -0.291958 0.939863 -0.177250
vn -0.291958 0.939863 -0.177250
vn -0.291958 0.939863 -0.177250
vn -0.291958 0.939863 -0.177250
vn -0.291958 0.939863 0.177250
vn -0.291958 0.939863 0.177250
vn -0.291958 0.939863 0.177250
vn -0.291958 0.939863 0.177250
vn 0.000000 1.000000 0.000000
vn 0.000000 1.000000 0.000000
vn 0.000000 1.000000 0.000000
vn 0.000000 1.000000 0.000000
vn 0.291958 0.939863 0.177250
vn 0.291958 0.939863 0.177250
vn 0.291958 0.939863 0.177250
vn 0.291958 0.939863 0.177250
vn 0.259665 0.965699 0.000000
vn 0.259665 0.965699 0.000000
vn 0.259665 0.965699 0.000000
vn 0.259665 0.965699 0.000000
vn 0.000000 1.000000 0.000000
vn 0.000000 1.000000 0.000000
vn 0.000000 1.000000 0.000000
vn 0.000000 1.000000 0.000000
vn -0.259665 0.965699 0.000000
vn -0.259665 0.965699 0.000000
vn -0.259665 0.965699 0.000000
vn -0.259665 0.965699 0.000000
vn 0.259665 0.965699 0.000000
vn 0.259665 0.965699 0.000000
vn 0.259665 0.965699 0.000000
vn 0.259665 0.965699 0.000000
vn 0.000000 1.000000 0.000000
vn 0.000000 1.000000 0.000000
vn 0.000000 1.000000 0.000000
vn 0.000000 1.000000 0.000000
vn -0.259665 0.965699 0.000000
vn -0.259665 0.965699 0.000000
vn -0.259665 0.965699 0.000000
vn -0.259665 0.965699 0.000000
s 1
g SM_Env_Track_RoadCrossing_01:Mesh
usemtl initialShadingGroup
f 1/1/1 3/2/2 2/4/3
f 2/4/3 3/2/2 4/3/4
s 2
f 4/5/5 3/6/6 14/8/7
f 14/8/7 3/6/6 13/7/8
s 3
f 2/9/9 4/10/10 16/12/11
f 16/12/11 4/10/10 14/11/12
s 4
f 5/13/13 6/14/14 7/16/15
f 7/16/15 6/14/14 8/15/16
s 5
f 6/17/17 5/18/18 20/20/19
f 20/20/19 5/18/18 19/19/20
s 6
f 5/21/21 7/22/22 19/24/23
f 19/24/23 7/22/22 17/23/24
s 7
f 9/25/25 61/26/26 11/29/27
f 10/27/28 12/28/29 61/26/26
f 61/26/26 12/28/29 11/29/27
s 8
f 43/30/30 44/31/31 34/33/32
f 34/33/32 44/31/31 33/32/33
s 9
f 13/34/34 15/35/35 14/37/36
f 14/37/36 15/35/35 16/36/37
s 10
f 2/38/38 16/39/39 1/41/40
f 1/41/40 16/39/39 15/40/41
s 11
f 1/42/42 15/43/43 3/45/44
f 3/45/44 15/43/43 13/44/45
s 12
f 8/46/46 18/47/47 7/49/48
f 7/49/48 18/47/47 17/48/49
s 13
f 17/50/50 18/51/51 19/53/52
f 19/53/52 18/51/51 20/52/53
s 14
f 6/54/54 20/55/55 8/57/56
f 8/57/56 20/55/55 18/56/57
s 15
f 34/58/58 35/59/59 43/61/60
f 43/61/60 35/59/59 42/60/61
s 16
f 21/62/62 22/63/63 23/65/64
f 23/65/64 22/63/63 24/64/65
s 17
f 35/66/66 36/67/67 42/69/68
f 42/69/68 36/67/67 41/68/69
s 18
f 55/70/70 56/71/71 30/73/72
f 30/73/72 56/71/71 29/72/73
s 19
f 30/74/74 31/75/75 55/77/76
f 55/77/76 31/75/75 54/76/77
s 20
f 31/78/78 32/79/79 54/81/80
f 54/81/80 32/79/79 53/80/81
s 21
f 30/82/82 29/83/83 38/85/84
f 38/85/84 29/83/83 37/84/85
s 22
f 38/86/86 39/87/87 30/89/88
f 30/89/88 39/87/87 31/88/89
s 23
f 39/90/90 40/91/91 31/93/92
f 31/93/92 40/91/91 32/92/93
s 24
f 59/94/94 60/95/95 26/97/96
f 26/97/96 60/95/95 25/96/97
s 25
f 26/98/98 27/99/99 59/101/100
f 59/101/100 27/99/99 58/100/101
s 26
f 27/102/102 28/103/103 58/105/104
f 58/105/104 28/103/103 57/104/105
s 27
f 38/106/106 37/107/107 50/109/108
f 50/109/108 37/107/107 49/108/109
s 28
f 50/110/110 51/111/111 38/113/112
f 38/113/112 51/111/111 39/112/113
s 29
f 51/114/114 52/115/115 39/117/116
f 39/117/116 52/115/115 40/116/117
s 30
f 42/118/118 41/119/119 46/121/120
f 46/121/120 41/119/119 45/120/121
s 31
f 43/122/122 42/123/123 47/125/124
f 47/125/124 42/123/123 46/124/125
s 32
f 47/126/126 48/127/127 43/129/128
f 43/129/128 48/127/127 44/128/129
s 33
f 45/131/130 24/132/131 46/130/132
f 46/130/132 24/132/131 22/133/133
s 34
f 47/134/134 46/135/135 21/137/136
f 21/137/136 46/135/135 22/136/137
s 35
f 48/139/138 47/140/139 23/138/140
f 23/138/140 47/140/139 21/141/141
s 36
f 49/143/142 9/144/143 50/142/144
f 50/142/144 9/144/143 11/145/145
s 37
f 12/146/146 51/147/147 11/149/148
f 11/149/148 51/147/147 50/148/149
s 38
f 52/151/150 51/152/151 10/150/152
f 10/150/152 51/152/151 12/153/153
s 39
f 54/154/154 53/155/155 27/157/156
f 27/157/156 53/155/155 28/156/157
s 40
f 55/158/158 54/159/159 26/161/160
f 26/161/160 54/159/159 27/160/161
s 41
f 26/162/162 25/163/163 55/165/164
f 55/165/164 25/163/163 56/164/165
s 42
f 58/166/166 57/167/167 35/169/168
f 35/169/168 57/167/167 36/168/169
s 43
f 59/170/170 58/171/171 34/173/172
f 34/173/172 58/171/171 35/172/173
s 44
f 34/174/174 33/175/175 59/177/176
f 59/177/176 33/175/175 60/176/177
