# This file uses centimeters as units for non-parametric coordinates.

mtllib SM_Env_Tile_Snow_02.mtl
g default
v 0.000000 -0.000001 5.000000
v 5.000000 -0.000001 5.000000
v 0.000000 0.000000 0.000000
v 5.000000 0.000000 0.000000
vt 0.487721 0.476253
vt 0.487721 0.476253
vt 0.487721 0.476253
vt 0.487721 0.476253
vn 0.000000 1.000000 0.000000
vn 0.000000 1.000000 0.000000
vn 0.000000 1.000000 0.000000
vn 0.000000 1.000000 0.000000
vn 0.000000 1.000000 0.000000
vn 0.000000 1.000000 0.000000
g SM_Env_Tile_Snow_04:Mesh
usemtl lambert2SG
f 1/1/1 2/2/2 3/3/3
f 3/3/4 2/2/5 4/4/6
