# This file uses centimeters as units for non-parametric coordinates.

mtllib SM_Prop_Cable_Pole_01.mtl
g default
v -2.699705 11.332298 0.272598
v 4.081101 0.000000 0.496017
v -2.699705 11.764312 0.272598
v 3.893115 11.764312 0.272598
v -2.699705 11.764312 -0.272591
v 3.893115 11.764312 -0.272591
v -2.699705 11.332296 -0.272591
v 4.081101 0.000000 -0.496010
v 3.246405 0.000000 0.496017
v 3.434391 11.332298 0.272598
v 3.434391 11.332298 -0.272591
v 3.246405 0.000000 -0.496010
v -0.660463 11.332298 0.141258
v -0.347496 11.332298 0.141258
v -0.660463 11.332296 -0.141235
v -0.347496 11.332298 -0.141235
v -0.660461 10.522125 0.141258
v -0.347493 10.522125 0.141258
v -0.660461 10.522123 -0.141235
v -0.347493 10.522125 -0.141235
v -1.766830 10.522121 0.201591
v 0.758876 10.522129 0.201591
v -1.766830 10.522120 -0.201569
v 0.758876 10.522129 -0.201569
v -1.766829 10.304117 0.201591
v 0.758877 10.304125 0.201591
v -1.766829 10.304115 -0.201569
v 0.758877 10.304125 -0.201569
v -0.503976 10.304121 0.201591
v -0.503976 10.304120 -0.201569
v 0.212177 10.304123 0.125443
v 0.493159 10.304123 0.125443
v 0.212177 10.304123 -0.125389
v 0.493159 10.304123 -0.125389
v -1.220129 10.304119 0.125443
v -1.220129 10.304119 -0.125389
v -1.501111 10.304118 0.125443
v -1.501111 10.304117 -0.125389
v 0.212177 9.869455 0.125443
v 0.493159 9.869455 0.125443
v 0.212177 9.869455 -0.125389
v 0.493159 9.869455 -0.125389
v -1.220127 9.869452 0.125443
v -1.220127 9.869452 -0.125389
v -1.501109 9.869452 0.125443
v -1.501109 9.869450 -0.125389
v 3.434391 11.115825 0.272598
v 3.434391 11.115825 -0.272591
v 3.893115 11.115824 -0.272591
v 3.893115 11.115824 0.272598
v 3.434391 10.852679 0.272598
v 3.434391 10.852679 -0.272591
v 3.893115 10.852679 -0.272591
v 3.893115 10.852679 0.272598
v 3.152517 11.115825 0.607605
v 3.152517 11.115825 -0.607597
v 3.152517 10.852679 -0.607597
v 3.152517 10.852679 0.607605
v 4.174989 11.115824 -0.607597
v 4.174989 10.852679 -0.607597
v 4.174989 10.852679 0.607605
v 4.174989 11.115824 0.607605
v 3.246405 2.292091 -0.496010
v 4.081100 2.292091 -0.496010
v 4.081101 2.292089 0.496017
v 3.246405 2.292089 0.496017
v 3.893115 2.645015 -0.272591
v 3.893115 2.645010 0.272598
v 3.434391 2.645010 0.272598
v 3.434391 2.645015 -0.272591
vt 0.303792 0.477110
vt 0.303792 0.477110
vt 0.303792 0.477110
vt 0.303792 0.477110
vt 0.210786 0.477110
vt 0.210786 0.477110
vt 0.210786 0.477110
vt 0.210786 0.477110
vt 0.272850 0.477110
vt 0.272850 0.477110
vt 0.272850 0.477110
vt 0.272850 0.477110
vt 0.174827 0.477110
vt 0.174827 0.477110
vt 0.174827 0.477110
vt 0.174827 0.477110
vt 0.236890 0.477110
vt 0.236891 0.477110
vt 0.236891 0.477110
vt 0.236890 0.477110
vt 0.236891 0.477110
vt 0.236890 0.477110
vt 0.236890 0.477110
vt 0.236891 0.477110
vt 0.174827 0.477110
vt 0.174827 0.477110
vt 0.174827 0.477110
vt 0.174827 0.477110
vt 0.139380 0.478454
vt 0.139380 0.478454
vt 0.139380 0.478454
vt 0.139380 0.478454
vt 0.201683 0.477110
vt 0.201683 0.477110
vt 0.201683 0.477110
vt 0.201683 0.477110
vt 0.208002 0.477110
vt 0.208003 0.477110
vt 0.208003 0.477110
vt 0.208002 0.477110
vt 0.208003 0.477110
vt 0.208003 0.477110
vt 0.208003 0.477110
vt 0.208003 0.477110
vt 0.208003 0.477110
vt 0.208002 0.477110
vt 0.208002 0.477110
vt 0.208003 0.477110
vt 0.208002 0.477110
vt 0.208002 0.477110
vt 0.208002 0.477110
vt 0.208002 0.477110
vt 0.174216 0.478454
vt 0.174216 0.478454
vt 0.174216 0.478454
vt 0.174216 0.478454
vt 0.207352 0.478454
vt 0.207352 0.478454
vt 0.207352 0.478454
vt 0.207352 0.478454
vt 0.174216 0.478454
vt 0.174216 0.478454
vt 0.174216 0.478454
vt 0.174216 0.478454
vt 0.207352 0.478454
vt 0.207352 0.478454
vt 0.207352 0.478454
vt 0.207352 0.478454
vt 0.302313 0.477110
vt 0.302313 0.477110
vt 0.302313 0.477110
vt 0.302313 0.477110
vt 0.302313 0.477110
vt 0.302313 0.477110
vt 0.302313 0.477110
vt 0.302313 0.477110
vt 0.302313 0.477110
vt 0.302313 0.477110
vt 0.302313 0.477110
vt 0.302313 0.477110
vt 0.302313 0.477110
vt 0.302313 0.477110
vt 0.302313 0.477110
vt 0.302313 0.477110
vt 0.236890 0.477110
vt 0.236891 0.477110
vt 0.236891 0.477110
vt 0.236891 0.477110
vt 0.236890 0.477110
vt 0.270027 0.477110
vt 0.270027 0.477110
vt 0.270027 0.477110
vt 0.270027 0.477110
vt 0.236891 0.477110
vt 0.236890 0.477110
vt 0.236890 0.477110
vt 0.236891 0.477110
vt 0.236891 0.477110
vt 0.270027 0.477110
vt 0.270027 0.477110
vt 0.270027 0.477110
vt 0.270027 0.477110
vt 0.139380 0.478454
vt 0.139380 0.478454
vt 0.139380 0.478454
vt 0.139380 0.478454
vt 0.212251 0.477110
vt 0.212251 0.477110
vt 0.212251 0.477110
vt 0.212251 0.477110
vt 0.212251 0.477110
vt 0.212251 0.477110
vt 0.212251 0.477110
vt 0.212251 0.477110
vt 0.212251 0.477110
vt 0.212251 0.477110
vt 0.212251 0.477110
vt 0.212251 0.477110
vt 0.212251 0.477110
vt 0.212251 0.477110
vt 0.212251 0.477110
vt 0.212251 0.477110
vt 0.212251 0.477110
vt 0.212251 0.477110
vt 0.212251 0.477110
vt 0.212251 0.477110
vt 0.212251 0.477110
vt 0.212251 0.477110
vt 0.212251 0.477110
vt 0.212251 0.477110
vt 0.212251 0.477110
vt 0.212251 0.477110
vt 0.212251 0.477110
vt 0.212251 0.477110
vt 0.212251 0.477110
vt 0.212251 0.477110
vt 0.212251 0.477110
vt 0.212251 0.477110
vt 0.174216 0.478454
vt 0.174216 0.478454
vt 0.174216 0.478454
vt 0.174216 0.478454
vt 0.207352 0.478454
vt 0.207352 0.478454
vt 0.207352 0.478454
vt 0.207352 0.478454
vt 0.174216 0.478454
vt 0.174216 0.478454
vt 0.174216 0.478454
vt 0.174216 0.478454
vt 0.207352 0.478454
vt 0.207352 0.478454
vt 0.207352 0.478454
vt 0.207352 0.478454
vt 0.174216 0.478454
vt 0.174216 0.478454
vt 0.174216 0.478454
vt 0.174216 0.478454
vt 0.174216 0.478454
vt 0.174216 0.478454
vt 0.174216 0.478454
vt 0.174216 0.478454
vt 0.207352 0.478454
vt 0.207352 0.478454
vt 0.207352 0.478454
vt 0.207352 0.478454
vt 0.174216 0.478454
vt 0.174216 0.478454
vt 0.174216 0.478454
vt 0.174216 0.478454
vt 0.263746 0.477110
vt 0.263746 0.477110
vt 0.263746 0.477110
vt 0.263746 0.477110
vt 0.236890 0.477110
vt 0.236890 0.477110
vt 0.236890 0.477110
vt 0.236890 0.477110
vt 0.272850 0.477110
vt 0.272850 0.477110
vt 0.272850 0.477110
vt 0.272850 0.477110
vt 0.236890 0.477110
vt 0.236890 0.477110
vt 0.236890 0.477110
vt 0.236890 0.477110
vt 0.199614 0.477110
vt 0.199614 0.477110
vt 0.199614 0.477110
vt 0.199614 0.477110
vt 0.172758 0.477110
vt 0.172758 0.477110
vt 0.172758 0.477110
vt 0.172758 0.477110
vt 0.208718 0.477110
vt 0.208718 0.477110
vt 0.208718 0.477110
vt 0.208718 0.477110
vt 0.172758 0.477110
vt 0.172758 0.477110
vt 0.172758 0.477110
vt 0.172758 0.477110
vt 0.235574 0.477131
vt 0.235574 0.477131
vt 0.235573 0.477131
vt 0.235573 0.477131
vt 0.138045 0.477156
vt 0.138045 0.477156
vt 0.138045 0.477156
vt 0.138045 0.477156
vt 0.235574 0.477131
vt 0.235574 0.477131
vt 0.235574 0.477131
vt 0.235573 0.477131
vt 0.138045 0.477156
vt 0.138045 0.477156
vt 0.138045 0.477156
vt 0.138045 0.477156
vt 0.138045 0.477156
vt 0.138045 0.477156
vt 0.138045 0.477156
vt 0.138045 0.477156
vt 0.235574 0.477131
vt 0.235574 0.477131
vt 0.235574 0.477131
vt 0.235574 0.477131
vt 0.138045 0.477156
vt 0.138045 0.477156
vt 0.138045 0.477156
vt 0.138045 0.477156
vt 0.235574 0.477131
vt 0.235574 0.477131
vt 0.235573 0.477131
vt 0.235574 0.477131
vt 0.203100 0.477110
vt 0.203100 0.477110
vt 0.203100 0.477110
vt 0.203100 0.477110
vt 0.239060 0.477110
vt 0.239060 0.477110
vt 0.239060 0.477110
vt 0.239060 0.477110
vt 0.203100 0.477110
vt 0.203100 0.477110
vt 0.203100 0.477110
vt 0.203100 0.477110
vt 0.229956 0.477110
vt 0.229956 0.477110
vt 0.229956 0.477110
vt 0.229956 0.477110
vt 0.272850 0.477110
vt 0.272850 0.477110
vt 0.272850 0.477110
vt 0.272850 0.477110
vt 0.236891 0.477110
vt 0.236891 0.477110
vt 0.236890 0.477110
vt 0.236890 0.477110
vt 0.263746 0.477110
vt 0.263746 0.477110
vt 0.263746 0.477110
vt 0.263746 0.477110
vt 0.236890 0.477110
vt 0.236890 0.477110
vt 0.236890 0.477110
vt 0.236890 0.477110
vn 0.000000 1.000000 0.000000
vn 0.000000 1.000000 0.000000
vn 0.000000 1.000000 0.000000
vn 0.000000 1.000000 0.000000
vn 1.000000 0.000000 0.000000
vn 1.000000 0.000000 0.000000
vn 1.000000 0.000000 0.000000
vn 1.000000 0.000000 0.000000
vn -1.000000 0.000001 0.000000
vn -1.000000 0.000001 0.000000
vn -1.000000 0.000001 0.000000
vn -1.000000 0.000001 0.000000
vn 0.000000 0.000000 1.000000
vn 0.000000 0.000000 1.000000
vn 0.000000 0.000000 1.000000
vn 0.000000 0.000000 1.000000
vn 0.000000 0.000000 1.000000
vn 0.000000 0.000000 1.000000
vn 0.000000 0.000000 1.000000
vn 0.000000 0.000000 1.000000
vn 0.000000 0.000000 -1.000000
vn 0.000000 0.000000 -1.000000
vn 0.000000 0.000000 -1.000000
vn 0.000000 0.000000 -1.000000
vn 0.000000 0.000000 -1.000000
vn 0.000000 0.000000 -1.000000
vn 0.000000 0.000000 -1.000000
vn 0.000000 0.000000 -1.000000
vn 0.000000 -1.000000 0.000000
vn 0.000000 -1.000000 0.000000
vn 0.000000 -1.000000 0.000000
vn 0.000000 -1.000000 0.000000
vn -1.000000 0.000000 0.000000
vn -1.000000 0.000000 0.000000
vn -1.000000 0.000000 0.000000
vn -1.000000 0.000000 0.000000
vn 0.000000 -1.000000 -0.000009
vn 0.000000 -1.000000 -0.000009
vn 0.000000 -1.000000 -0.000009
vn 0.000000 -1.000000 -0.000009
vn 0.000000 -1.000000 0.000007
vn 0.000000 -1.000000 0.000007
vn 0.000000 -1.000000 0.000007
vn 0.000000 -1.000000 0.000007
vn 0.000001 -1.000000 -0.000005
vn 0.000001 -1.000000 -0.000005
vn 0.000001 -1.000000 -0.000005
vn 0.000001 -1.000000 -0.000005
vn 0.000000 -1.000000 0.000000
vn 0.000000 -1.000000 0.000000
vn 0.000000 -1.000000 0.000000
vn 0.000000 -1.000000 0.000000
vn 0.000000 0.000000 1.000000
vn 0.000000 0.000000 1.000000
vn 0.000000 0.000000 1.000000
vn 0.000000 0.000000 1.000000
vn -1.000000 -0.000003 0.000000
vn -1.000000 -0.000003 0.000000
vn -1.000000 -0.000003 0.000000
vn -1.000000 -0.000003 0.000000
vn 0.000000 0.000000 -1.000000
vn 0.000000 0.000000 -1.000000
vn 0.000000 0.000000 -1.000000
vn 0.000000 0.000000 -1.000000
vn 1.000000 0.000003 0.000000
vn 1.000000 0.000003 0.000000
vn 1.000000 0.000003 0.000000
vn 1.000000 0.000003 0.000000
vn -0.000003 1.000000 0.000011
vn -0.000003 1.000000 0.000011
vn -0.000003 1.000000 0.000011
vn -0.000003 1.000000 0.000011
vn -0.000003 1.000000 -0.000005
vn -0.000003 1.000000 -0.000005
vn -0.000003 1.000000 -0.000005
vn -0.000003 1.000000 -0.000005
vn -0.000004 1.000000 -0.000011
vn -0.000004 1.000000 -0.000011
vn -0.000004 1.000000 -0.000011
vn -0.000004 1.000000 -0.000011
vn -0.000003 1.000000 0.000000
vn -0.000003 1.000000 0.000000
vn -0.000003 1.000000 0.000000
vn -0.000003 1.000000 0.000000
vn 0.000000 0.000000 1.000000
vn 0.000000 0.000000 1.000000
vn 0.000000 0.000000 1.000000
vn 0.000000 0.000000 1.000000
vn 0.000000 0.000000 1.000000
vn -1.000000 -0.000005 0.000000
vn -1.000000 -0.000005 0.000000
vn -1.000000 -0.000005 0.000000
vn -1.000000 -0.000005 0.000000
vn 0.000000 0.000000 -1.000000
vn 0.000000 0.000000 -1.000000
vn 0.000000 0.000000 -1.000000
vn 0.000000 0.000000 -1.000000
vn 0.000000 0.000000 -1.000000
vn 1.000000 0.000001 0.000000
vn 1.000000 0.000001 0.000000
vn 1.000000 0.000001 0.000000
vn 1.000000 0.000001 0.000000
vn 0.000003 -1.000000 0.000003
vn 0.000003 -1.000000 0.000003
vn 0.000003 -1.000000 0.000003
vn 0.000003 -1.000000 0.000003
vn 0.000002 -1.000000 0.000004
vn 0.000002 -1.000000 0.000004
vn 0.000002 -1.000000 0.000004
vn 0.000002 -1.000000 0.000004
vn 0.000003 -1.000000 0.000004
vn 0.000003 -1.000000 0.000004
vn 0.000003 -1.000000 0.000004
vn 0.000003 -1.000000 0.000004
vn 0.000003 -1.000000 -0.000032
vn 0.000003 -1.000000 -0.000032
vn 0.000003 -1.000000 -0.000032
vn 0.000003 -1.000000 -0.000032
vn 0.000007 -1.000000 0.000000
vn 0.000007 -1.000000 0.000000
vn 0.000007 -1.000000 0.000000
vn 0.000007 -1.000000 0.000000
vn 0.000002 -1.000000 0.000004
vn 0.000002 -1.000000 0.000004
vn 0.000002 -1.000000 0.000004
vn 0.000002 -1.000000 0.000004
vn 0.000003 -1.000000 -0.000008
vn 0.000003 -1.000000 -0.000008
vn 0.000003 -1.000000 -0.000008
vn 0.000003 -1.000000 -0.000008
vn 0.000005 -1.000000 0.000003
vn 0.000005 -1.000000 0.000003
vn 0.000005 -1.000000 0.000003
vn 0.000005 -1.000000 0.000003
vn 0.000004 -1.000000 0.000028
vn 0.000004 -1.000000 0.000028
vn 0.000004 -1.000000 0.000028
vn 0.000004 -1.000000 0.000028
vn 0.000000 0.000000 1.000000
vn 0.000000 0.000000 1.000000
vn 0.000000 0.000000 1.000000
vn 0.000000 0.000000 1.000000
vn -1.000000 0.000000 0.000000
vn -1.000000 0.000000 0.000000
vn -1.000000 0.000000 0.000000
vn -1.000000 0.000000 0.000000
vn 0.000000 0.000000 -1.000000
vn 0.000000 0.000000 -1.000000
vn 0.000000 0.000000 -1.000000
vn 0.000000 0.000000 -1.000000
vn 1.000000 0.000000 0.000000
vn 1.000000 0.000000 0.000000
vn 1.000000 0.000000 0.000000
vn 1.000000 0.000000 0.000000
vn 1.000000 0.000005 0.000000
vn 1.000000 0.000005 0.000000
vn 1.000000 0.000005 0.000000
vn 1.000000 0.000005 0.000000
vn 0.000000 0.000000 1.000000
vn 0.000000 0.000000 1.000000
vn 0.000000 0.000000 1.000000
vn 0.000000 0.000000 1.000000
vn -1.000000 -0.000005 0.000000
vn -1.000000 -0.000005 0.000000
vn -1.000000 -0.000005 0.000000
vn -1.000000 -0.000005 0.000000
vn 0.000000 0.000000 -1.000000
vn 0.000000 0.000000 -1.000000
vn 0.000000 0.000000 -1.000000
vn 0.000000 0.000000 -1.000000
vn -1.000000 0.000000 0.000000
vn -1.000000 0.000000 0.000000
vn -1.000000 0.000000 0.000000
vn -1.000000 0.000000 0.000000
vn 0.000000 0.000000 -1.000000
vn 0.000000 0.000000 -1.000000
vn 0.000000 0.000000 -1.000000
vn 0.000000 0.000000 -1.000000
vn 1.000000 0.000000 0.000000
vn 1.000000 0.000000 0.000000
vn 1.000000 0.000000 0.000000
vn 1.000000 0.000000 0.000000
vn 0.000000 0.000000 1.000000
vn 0.000000 0.000000 1.000000
vn 0.000000 0.000000 1.000000
vn 0.000000 0.000000 1.000000
vn -1.000000 0.000000 0.000000
vn -1.000000 0.000000 0.000000
vn -1.000000 0.000000 0.000000
vn -1.000000 0.000000 0.000000
vn 0.000000 0.000000 -1.000000
vn 0.000000 0.000000 -1.000000
vn 0.000000 0.000000 -1.000000
vn 0.000000 0.000000 -1.000000
vn 1.000000 0.000000 0.000000
vn 1.000000 0.000000 0.000000
vn 1.000000 0.000000 0.000000
vn 1.000000 0.000000 0.000000
vn 0.000000 0.000000 1.000000
vn 0.000000 0.000000 1.000000
vn 0.000000 0.000000 1.000000
vn 0.000000 0.000000 1.000000
vn 0.000000 1.000000 0.000000
vn 0.000000 1.000000 0.000000
vn 0.000000 1.000000 0.000000
vn 0.000000 1.000000 0.000000
vn 0.000000 -1.000000 0.000000
vn 0.000000 -1.000000 0.000000
vn 0.000000 -1.000000 0.000000
vn 0.000000 -1.000000 0.000000
vn 0.000001 1.000000 -0.000005
vn 0.000001 1.000000 -0.000005
vn 0.000001 1.000000 -0.000005
vn 0.000001 1.000000 -0.000005
vn 0.000000 -1.000000 -0.000001
vn 0.000000 -1.000000 -0.000001
vn 0.000000 -1.000000 -0.000001
vn 0.000000 -1.000000 -0.000001
vn 0.000000 -1.000000 0.000000
vn 0.000000 -1.000000 0.000000
vn 0.000000 -1.000000 0.000000
vn 0.000000 -1.000000 0.000000
vn 0.000000 1.000000 0.000000
vn 0.000000 1.000000 0.000000
vn 0.000000 1.000000 0.000000
vn 0.000000 1.000000 0.000000
vn 0.000000 -1.000000 -0.000001
vn 0.000000 -1.000000 -0.000001
vn 0.000000 -1.000000 -0.000001
vn 0.000000 -1.000000 -0.000001
vn 0.000001 1.000000 0.000005
vn 0.000001 1.000000 0.000005
vn 0.000001 1.000000 0.000005
vn 0.000001 1.000000 0.000005
vn 0.000000 0.534882 -0.844927
vn 0.000000 0.534882 -0.844927
vn 0.000000 0.534882 -0.844927
vn 0.000000 0.534882 -0.844927
vn 0.882601 0.470122 0.000001
vn 0.882601 0.470122 0.000001
vn 0.882601 0.470122 0.000001
vn 0.882601 0.470122 0.000001
vn 0.000000 0.534885 0.844925
vn 0.000000 0.534885 0.844925
vn 0.000000 0.534885 0.844925
vn 0.000000 0.534885 0.844925
vn -0.882602 0.470122 0.000002
vn -0.882602 0.470122 0.000002
vn -0.882602 0.470122 0.000002
vn -0.882602 0.470122 0.000002
vn 1.000000 0.000000 0.000000
vn 1.000000 0.000000 0.000000
vn 1.000000 0.000000 0.000000
vn 1.000000 0.000000 0.000000
vn 0.000000 0.000000 1.000000
vn 0.000000 0.000000 1.000000
vn 0.000000 0.000000 1.000000
vn 0.000000 0.000000 1.000000
vn -1.000000 0.000000 0.000000
vn -1.000000 0.000000 0.000000
vn -1.000000 0.000000 0.000000
vn -1.000000 0.000000 0.000000
vn 0.000000 0.000000 -1.000000
vn 0.000000 0.000000 -1.000000
vn 0.000000 0.000000 -1.000000
vn 0.000000 0.000000 -1.000000
s 1
g SM_Prop_Cable_Pole_01:Mesh
usemtl initialShadingGroup
f 3/1/1 4/2/2 5/4/3
f 5/4/3 4/2/2 6/3/4
s 2
f 2/5/5 8/6/6 65/8/7
f 65/8/7 8/6/6 64/7/8
s 3
f 7/9/9 1/10/10 5/12/11
f 5/12/11 1/10/10 3/11/12
s 4
f 2/13/13 65/14/14 9/16/15
f 9/16/15 65/14/14 66/15/16
s 5
f 4/17/17 3/18/18 10/20/19
f 10/20/19 3/18/18 1/19/20
s 6
f 6/22/21 11/23/22 5/21/23
f 5/21/23 11/23/22 7/24/24
s 7
f 63/25/25 64/26/26 12/28/27
f 12/28/27 64/26/26 8/27/28
s 8
f 40/29/29 39/30/30 42/32/31
f 42/32/31 39/30/30 41/31/32
s 9
f 66/33/33 63/34/34 9/36/35
f 9/36/35 63/34/34 12/35/36
s 10
f 10/37/37 1/38/38 14/40/39
f 1/38/38 13/39/40 14/40/39
s 11
f 1/41/41 7/42/42 13/44/43
f 13/44/43 7/42/42 15/43/44
s 12
f 7/45/45 11/46/46 15/48/47
f 11/46/46 16/47/48 15/48/47
s 13
f 11/49/49 10/50/50 16/52/51
f 16/52/51 10/50/50 14/51/52
s 14
f 14/53/53 13/54/54 18/56/55
f 18/56/55 13/54/54 17/55/56
s 15
f 13/57/57 15/58/58 17/60/59
f 17/60/59 15/58/58 19/59/60
s 16
f 15/61/61 16/62/62 19/64/63
f 19/64/63 16/62/62 20/63/64
s 17
f 16/65/65 14/66/66 20/68/67
f 20/68/67 14/66/66 18/67/68
s 18
f 21/71/69 22/72/70 17/70/71
f 18/69/72 17/70/71 22/72/70
s 19
f 17/73/73 19/74/74 21/76/75
f 21/76/75 19/74/74 23/75/76
s 20
f 24/79/77 23/80/78 20/78/79
f 19/77/80 20/78/79 23/80/78
s 21
f 20/81/81 18/82/82 24/84/83
f 24/84/83 18/82/82 22/83/84
s 22
f 22/85/85 21/86/86 26/89/87
f 26/89/87 21/86/86 29/88/88
f 21/86/86 25/87/89 29/88/88
s 23
f 21/90/90 23/91/91 25/93/92
f 25/93/92 23/91/91 27/92/93
s 24
f 23/94/94 24/95/95 27/98/96
f 27/98/96 24/95/95 30/97/97
f 24/95/95 28/96/98 30/97/97
s 25
f 24/99/99 22/100/100 28/102/101
f 28/102/101 22/100/100 26/101/102
s 26
f 44/103/103 43/104/104 46/106/105
f 46/106/105 43/104/104 45/105/106
s 27
f 29/108/107 31/109/108 26/107/109
f 26/107/109 31/109/108 32/110/110
s 28
f 29/111/111 30/112/112 31/114/113
f 31/114/113 30/112/112 33/113/114
s 29
f 30/115/115 28/116/116 33/118/117
f 33/118/117 28/116/116 34/117/118
s 30
f 28/119/119 26/120/120 34/122/121
f 34/122/121 26/120/120 32/121/122
s 31
f 30/123/123 29/124/124 36/126/125
f 36/126/125 29/124/124 35/125/126
s 32
f 29/127/127 25/128/128 35/130/129
f 35/130/129 25/128/128 37/129/130
s 33
f 25/131/131 27/132/132 37/134/133
f 37/134/133 27/132/132 38/133/134
s 34
f 30/136/135 36/137/136 27/135/137
f 27/135/137 36/137/136 38/138/138
s 35
f 32/139/139 31/140/140 40/142/141
f 40/142/141 31/140/140 39/141/142
s 36
f 31/143/143 33/144/144 39/146/145
f 39/146/145 33/144/144 41/145/146
s 37
f 33/147/147 34/148/148 41/150/149
f 41/150/149 34/148/148 42/149/150
s 38
f 34/151/151 32/152/152 42/154/153
f 42/154/153 32/152/152 40/153/154
s 39
f 36/155/155 35/156/156 44/158/157
f 44/158/157 35/156/156 43/157/158
s 40
f 35/159/159 37/160/160 43/162/161
f 43/162/161 37/160/160 45/161/162
s 41
f 37/163/163 38/164/164 45/166/165
f 45/166/165 38/164/164 46/165/166
s 42
f 38/167/167 36/168/168 46/170/169
f 46/170/169 36/168/168 44/169/170
s 43
f 10/171/171 11/172/172 47/174/173
f 47/174/173 11/172/172 48/173/174
s 44
f 6/175/175 49/176/176 11/178/177
f 11/178/177 49/176/176 48/177/178
s 45
f 50/179/179 49/180/180 4/182/181
f 4/182/181 49/180/180 6/181/182
s 46
f 47/183/183 50/184/184 10/186/185
f 10/186/185 50/184/184 4/185/186
s 47
f 55/187/187 56/188/188 58/190/189
f 58/190/189 56/188/188 57/189/190
s 48
f 56/191/191 59/192/192 57/194/193
f 57/194/193 59/192/192 60/193/194
s 49
f 61/195/195 60/196/196 62/198/197
f 62/198/197 60/196/196 59/197/198
s 50
f 58/199/199 61/200/200 55/202/201
f 55/202/201 61/200/200 62/201/202
s 51
f 47/203/203 48/204/204 55/206/205
f 55/206/205 48/204/204 56/205/206
s 52
f 52/207/207 51/208/208 57/210/209
f 57/210/209 51/208/208 58/209/210
s 53
f 48/211/211 49/212/212 56/214/213
f 56/214/213 49/212/212 59/213/214
s 54
f 53/215/215 52/216/216 60/218/217
f 60/218/217 52/216/216 57/217/218
s 55
f 54/219/219 53/220/220 61/222/221
f 61/222/221 53/220/220 60/221/222
s 56
f 49/223/223 50/224/224 59/226/225
f 59/226/225 50/224/224 62/225/226
s 57
f 51/227/227 54/228/228 58/230/229
f 58/230/229 54/228/228 61/229/230
s 58
f 50/231/231 47/232/232 62/234/233
f 62/234/233 47/232/232 55/233/234
s 59
f 70/235/235 67/236/236 63/238/237
f 63/238/237 67/236/236 64/237/238
s 60
f 65/239/239 64/240/240 68/242/241
f 68/242/241 64/240/240 67/241/242
s 61
f 66/243/243 65/244/244 69/246/245
f 69/246/245 65/244/244 68/245/246
s 62
f 69/247/247 70/248/248 66/250/249
f 66/250/249 70/248/248 63/249/250
s 63
f 68/251/251 67/252/252 54/254/253
f 54/254/253 67/252/252 53/253/254
s 64
f 69/255/255 68/256/256 51/258/257
f 51/258/257 68/256/256 54/257/258
s 65
f 51/259/259 52/260/260 69/262/261
f 69/262/261 52/260/260 70/261/262
s 66
f 52/263/263 53/264/264 70/266/265
f 70/266/265 53/264/264 67/265/266
