# This file uses centimeters as units for non-parametric coordinates.

mtllib SM_Prop_Sign_03.mtl
g default
v -2.650886 0.000000 0.386326
v -2.650886 0.000000 -0.386326
v -2.876223 3.065341 0.160988
v -2.876223 3.065341 -0.160988
v -3.198200 3.065341 0.160988
v -3.198200 3.065341 -0.160988
v -3.423537 0.000000 0.386326
v -3.423537 0.000000 -0.386326
v -3.423537 0.488353 0.386326
v -2.650886 0.488353 0.386326
v -2.650886 0.488353 -0.386326
v -3.423537 0.488353 -0.386326
v -2.876223 0.635784 -0.160988
v -2.876223 0.635784 0.160988
v -3.198200 0.635784 0.160988
v -3.198200 0.635784 -0.160988
v 3.976381 1.928571 0.107071
v 3.976381 1.928571 -0.109924
v 3.976381 2.928571 0.107071
v 3.976381 2.928571 -0.109924
v -3.976381 2.928571 0.107071
v -3.976381 2.928571 -0.109924
v -3.976381 1.928571 0.107071
v -3.976381 1.928571 -0.109924
v 3.423537 0.000000 0.386326
v 3.423537 0.000000 -0.386326
v 3.198200 3.065341 0.160988
v 3.198200 3.065341 -0.160988
v 2.876223 3.065341 0.160988
v 2.876223 3.065341 -0.160988
v 2.650886 0.000000 0.386326
v 2.650886 0.000000 -0.386326
v 2.650886 0.488353 0.386326
v 3.423537 0.488353 0.386326
v 3.423537 0.488353 -0.386326
v 2.650886 0.488353 -0.386326
v 3.198200 0.635784 -0.160988
v 3.198200 0.635784 0.160988
v 2.876223 0.635784 0.160988
v 2.876223 0.635784 -0.160988
vt 0.220833 0.478454
vt 0.220833 0.478454
vt 0.220833 0.478454
vt 0.220833 0.478454
vt 0.258484 0.478454
vt 0.258484 0.478454
vt 0.258484 0.478454
vt 0.258484 0.478454
vt 0.220833 0.478454
vt 0.220833 0.478454
vt 0.220833 0.478454
vt 0.220833 0.478454
vt 0.154787 0.478454
vt 0.154787 0.478454
vt 0.154787 0.478454
vt 0.154787 0.478454
vt 0.256793 0.478454
vt 0.256793 0.478454
vt 0.256793 0.478454
vt 0.256793 0.478454
vt 0.256793 0.478454
vt 0.256793 0.478454
vt 0.256793 0.478454
vt 0.256793 0.478454
vt 0.227542 0.478454
vt 0.227542 0.478454
vt 0.227542 0.478454
vt 0.227542 0.478454
vt 0.191583 0.478454
vt 0.191583 0.478454
vt 0.191583 0.478454
vt 0.191583 0.478454
vt 0.227542 0.478454
vt 0.227542 0.478454
vt 0.227542 0.478454
vt 0.227542 0.478454
vt 0.191583 0.478454
vt 0.191583 0.478454
vt 0.191583 0.478454
vt 0.191583 0.478454
vt 0.191583 0.478454
vt 0.191583 0.478454
vt 0.191583 0.478454
vt 0.191583 0.478454
vt 0.227542 0.478454
vt 0.227542 0.478454
vt 0.227542 0.478454
vt 0.227542 0.478454
vt 0.191583 0.478454
vt 0.191583 0.478454
vt 0.191583 0.478454
vt 0.191583 0.478454
vt 0.227542 0.478454
vt 0.227542 0.478454
vt 0.227542 0.478454
vt 0.227542 0.478454
vt 0.139765 0.477805
vt 0.139765 0.477805
vt 0.139765 0.477805
vt 0.139765 0.477805
vt 0.117866 0.894849
vt 0.117866 0.931801
vt 0.335444 0.931801
vt 0.335444 0.894849
vt 0.105703 0.477805
vt 0.105703 0.477805
vt 0.105703 0.477805
vt 0.105703 0.477805
vt 0.139764 0.477805
vt 0.139764 0.477805
vt 0.139764 0.477805
vt 0.139764 0.477805
vt 0.117866 0.931801
vt 0.335444 0.931801
vt 0.335444 0.894849
vt 0.117866 0.894849
vt 0.220833 0.478454
vt 0.220833 0.478454
vt 0.220833 0.478454
vt 0.220833 0.478454
vt 0.258484 0.478454
vt 0.258484 0.478454
vt 0.258484 0.478454
vt 0.258484 0.478454
vt 0.220833 0.478454
vt 0.220833 0.478454
vt 0.220833 0.478454
vt 0.220833 0.478454
vt 0.154787 0.478454
vt 0.154787 0.478454
vt 0.154787 0.478454
vt 0.154787 0.478454
vt 0.256793 0.478454
vt 0.256793 0.478454
vt 0.256793 0.478454
vt 0.256793 0.478454
vt 0.256793 0.478454
vt 0.256793 0.478454
vt 0.256793 0.478454
vt 0.256793 0.478454
vt 0.227542 0.478454
vt 0.227542 0.478454
vt 0.227542 0.478454
vt 0.227542 0.478454
vt 0.191583 0.478454
vt 0.191583 0.478454
vt 0.191583 0.478454
vt 0.191583 0.478454
vt 0.227542 0.478454
vt 0.227542 0.478454
vt 0.227542 0.478454
vt 0.227542 0.478454
vt 0.191583 0.478454
vt 0.191583 0.478454
vt 0.191583 0.478454
vt 0.191583 0.478454
vt 0.191583 0.478454
vt 0.191583 0.478454
vt 0.191583 0.478454
vt 0.191583 0.478454
vt 0.227542 0.478454
vt 0.227542 0.478454
vt 0.227542 0.478454
vt 0.227542 0.478454
vt 0.191583 0.478454
vt 0.191583 0.478454
vt 0.191583 0.478454
vt 0.191583 0.478454
vt 0.227542 0.478454
vt 0.227542 0.478454
vt 0.227542 0.478454
vt 0.227542 0.478454
vt 0.173826 0.477805
vt 0.173825 0.477805
vt 0.173825 0.477805
vt 0.173826 0.477805
vn 0.547497 0.836808 0.000000
vn 0.547497 0.836808 0.000000
vn 0.547497 0.836808 0.000000
vn 0.547497 0.836808 0.000000
vn 0.000000 1.000000 0.000000
vn 0.000000 1.000000 0.000000
vn 0.000000 1.000000 0.000000
vn 0.000000 1.000000 0.000000
vn -0.547497 0.836807 0.000000
vn -0.547497 0.836807 0.000000
vn -0.547497 0.836807 0.000000
vn -0.547497 0.836807 0.000000
vn 0.000000 -1.000000 0.000000
vn 0.000000 -1.000000 0.000000
vn 0.000000 -1.000000 0.000000
vn 0.000000 -1.000000 0.000000
vn 0.000000 0.836809 -0.547496
vn 0.000000 0.836809 -0.547496
vn 0.000000 0.836809 -0.547496
vn 0.000000 0.836809 -0.547496
vn 0.000000 0.836809 0.547496
vn 0.000000 0.836809 0.547496
vn 0.000000 0.836809 0.547496
vn 0.000000 0.836809 0.547496
vn 0.000000 0.000000 1.000000
vn 0.000000 0.000000 1.000000
vn 0.000000 0.000000 1.000000
vn 0.000000 0.000000 1.000000
vn 1.000000 0.000000 0.000000
vn 1.000000 0.000000 0.000000
vn 1.000000 0.000000 0.000000
vn 1.000000 0.000000 0.000000
vn 0.000000 0.000000 -1.000000
vn 0.000000 0.000000 -1.000000
vn 0.000000 0.000000 -1.000000
vn 0.000000 0.000000 -1.000000
vn -1.000000 0.000000 0.000000
vn -1.000000 0.000000 0.000000
vn -1.000000 0.000000 0.000000
vn -1.000000 0.000000 0.000000
vn 1.000000 0.000000 0.000000
vn 1.000000 0.000000 0.000000
vn 1.000000 0.000000 0.000000
vn 1.000000 0.000000 0.000000
vn 0.000000 0.000000 1.000000
vn 0.000000 0.000000 1.000000
vn 0.000000 0.000000 1.000000
vn 0.000000 0.000000 1.000000
vn -1.000000 0.000000 0.000000
vn -1.000000 0.000000 0.000000
vn -1.000000 0.000000 0.000000
vn -1.000000 0.000000 0.000000
vn 0.000000 0.000000 -1.000000
vn 0.000000 0.000000 -1.000000
vn 0.000000 0.000000 -1.000000
vn 0.000000 0.000000 -1.000000
vn 1.000000 0.000000 0.000000
vn 1.000000 0.000000 0.000000
vn 1.000000 0.000000 0.000000
vn 1.000000 0.000000 0.000000
vn 0.000000 0.000000 1.000000
vn 0.000000 0.000000 1.000000
vn 0.000000 0.000000 1.000000
vn 0.000000 0.000000 1.000000
vn 0.000000 -1.000000 0.000000
vn 0.000000 -1.000000 0.000000
vn 0.000000 -1.000000 0.000000
vn 0.000000 -1.000000 0.000000
vn -1.000000 0.000000 0.000000
vn -1.000000 0.000000 0.000000
vn -1.000000 0.000000 0.000000
vn -1.000000 0.000000 0.000000
vn 0.000000 0.000000 -1.000000
vn 0.000000 0.000000 -1.000000
vn 0.000000 0.000000 -1.000000
vn 0.000000 0.000000 -1.000000
vn 0.547497 0.836808 0.000000
vn 0.547497 0.836808 0.000000
vn 0.547497 0.836807 0.000000
vn 0.547497 0.836807 0.000000
vn 0.000000 1.000000 0.000000
vn 0.000000 1.000000 0.000000
vn 0.000000 1.000000 0.000000
vn 0.000000 1.000000 0.000000
vn -0.547497 0.836808 0.000000
vn -0.547497 0.836808 0.000000
vn -0.547497 0.836808 0.000000
vn -0.547497 0.836808 0.000000
vn 0.000000 -1.000000 0.000000
vn 0.000000 -1.000000 0.000000
vn 0.000000 -1.000000 0.000000
vn 0.000000 -1.000000 0.000000
vn 0.000000 0.836809 -0.547496
vn 0.000000 0.836809 -0.547496
vn 0.000000 0.836809 -0.547496
vn 0.000000 0.836809 -0.547496
vn 0.000000 0.836809 0.547496
vn 0.000000 0.836809 0.547496
vn 0.000000 0.836809 0.547496
vn 0.000000 0.836809 0.547496
vn 0.000000 0.000000 1.000000
vn 0.000000 0.000000 1.000000
vn 0.000000 0.000000 1.000000
vn 0.000000 0.000000 1.000000
vn 1.000000 0.000000 0.000000
vn 1.000000 0.000000 0.000000
vn 1.000000 0.000000 0.000000
vn 1.000000 0.000000 0.000000
vn 0.000000 0.000000 -1.000000
vn 0.000000 0.000000 -1.000000
vn 0.000000 0.000000 -1.000000
vn 0.000000 0.000000 -1.000000
vn -1.000000 0.000000 0.000000
vn -1.000000 0.000000 0.000000
vn -1.000000 0.000000 0.000000
vn -1.000000 0.000000 0.000000
vn 1.000000 0.000000 0.000000
vn 1.000000 0.000000 0.000000
vn 1.000000 0.000000 0.000000
vn 1.000000 0.000000 0.000000
vn 0.000000 0.000000 1.000000
vn 0.000000 0.000000 1.000000
vn 0.000000 0.000000 1.000000
vn 0.000000 0.000000 1.000000
vn -1.000000 0.000000 0.000000
vn -1.000000 0.000000 0.000000
vn -1.000000 0.000000 0.000000
vn -1.000000 0.000000 0.000000
vn 0.000000 0.000000 -1.000000
vn 0.000000 0.000000 -1.000000
vn 0.000000 0.000000 -1.000000
vn 0.000000 0.000000 -1.000000
vn 0.000000 1.000000 0.000000
vn 0.000000 1.000000 0.000000
vn 0.000000 1.000000 0.000000
vn 0.000000 1.000000 0.000000
s 1
g SM_Prop_Sign_03:Mesh
usemtl initialShadingGroup
f 10/1/1 11/2/2 14/4/3
f 14/4/3 11/2/2 13/3/4
s 2
f 3/5/5 4/6/6 5/8/7
f 5/8/7 4/6/6 6/7/8
s 3
f 15/9/9 16/10/10 9/12/11
f 9/12/11 16/10/10 12/11/12
s 4
f 7/13/13 8/14/14 1/16/15
f 1/16/15 8/14/14 2/15/16
s 5
f 11/17/17 12/18/18 13/20/19
f 13/20/19 12/18/18 16/19/20
s 6
f 9/21/21 10/22/22 15/24/23
f 15/24/23 10/22/22 14/23/24
s 7
f 7/25/25 1/26/26 9/28/27
f 9/28/27 1/26/26 10/27/28
s 8
f 1/29/29 2/30/30 10/32/31
f 10/32/31 2/30/30 11/31/32
s 9
f 2/33/33 8/34/34 11/36/35
f 11/36/35 8/34/34 12/35/36
s 10
f 9/37/37 12/38/38 7/40/39
f 7/40/39 12/38/38 8/39/40
s 11
f 14/41/41 13/42/42 3/44/43
f 3/44/43 13/42/42 4/43/44
s 12
f 15/45/45 14/46/46 5/48/47
f 5/48/47 14/46/46 3/47/48
s 13
f 5/49/49 6/50/50 15/52/51
f 15/52/51 6/50/50 16/51/52
s 14
f 13/53/53 16/54/54 4/56/55
f 4/56/55 16/54/54 6/55/56
s 15
f 18/57/57 20/58/58 17/60/59
f 17/60/59 20/58/58 19/59/60
s 16
f 17/61/61 19/62/62 23/64/63
f 23/64/63 19/62/62 21/63/64
s 17
f 23/65/65 24/66/66 17/68/67
f 17/68/67 24/66/66 18/67/68
s 18
f 21/69/69 22/70/70 23/72/71
f 23/72/71 22/70/70 24/71/72
s 19
f 22/73/73 20/74/74 24/76/75
f 24/76/75 20/74/74 18/75/76
s 20
f 34/77/77 35/78/78 38/80/79
f 38/80/79 35/78/78 37/79/80
s 21
f 27/81/81 28/82/82 29/84/83
f 29/84/83 28/82/82 30/83/84
s 22
f 39/85/85 40/86/86 33/88/87
f 33/88/87 40/86/86 36/87/88
s 23
f 31/89/89 32/90/90 25/92/91
f 25/92/91 32/90/90 26/91/92
s 24
f 35/93/93 36/94/94 37/96/95
f 37/96/95 36/94/94 40/95/96
s 25
f 33/97/97 34/98/98 39/100/99
f 39/100/99 34/98/98 38/99/100
s 26
f 31/101/101 25/102/102 33/104/103
f 33/104/103 25/102/102 34/103/104
s 27
f 25/105/105 26/106/106 34/108/107
f 34/108/107 26/106/106 35/107/108
s 28
f 26/109/109 32/110/110 35/112/111
f 35/112/111 32/110/110 36/111/112
s 29
f 33/113/113 36/114/114 31/116/115
f 31/116/115 36/114/114 32/115/116
s 30
f 38/117/117 37/118/118 27/120/119
f 27/120/119 37/118/118 28/119/120
s 31
f 39/121/121 38/122/122 29/124/123
f 29/124/123 38/122/122 27/123/124
s 32
f 29/125/125 30/126/126 39/128/127
f 39/128/127 30/126/126 40/127/128
s 33
f 37/129/129 40/130/130 28/132/131
f 28/132/131 40/130/130 30/131/132
s 34
f 20/133/133 22/134/134 19/136/135
f 19/136/135 22/134/134 21/135/136
