# This file uses centimeters as units for non-parametric coordinates.

mtllib SM_Prop_Sign_01.mtl
g default
v 0.365611 1.235778 0.128566
v 0.365611 1.235778 -0.006503
v 0.365611 2.006965 0.128566
v 0.365611 2.006965 -0.006503
v -0.405577 2.006965 0.128566
v -0.405577 2.006965 -0.006503
v -0.405577 1.235778 0.128566
v -0.405577 1.235778 -0.006503
v -0.349972 1.291382 0.128566
v 0.310006 1.291382 0.128566
v 0.310006 1.951361 0.128566
v -0.349972 1.951361 0.128566
v -0.283974 1.951361 0.128566
v 0.310006 1.357380 0.128566
v -0.349972 1.885363 0.128566
v 0.244008 1.291382 0.128566
v 0.405577 0.000000 0.305235
v 0.405577 0.000000 -0.305235
v 0.039433 1.639997 0.061032
v 0.039433 1.639997 -0.061032
v -0.082631 1.639997 0.061032
v -0.082631 1.639997 -0.061032
v -0.204894 0.000000 0.305235
v -0.204894 0.000000 -0.305235
v -0.204894 0.160372 0.305235
v 0.405577 0.160372 0.305235
v 0.405577 0.160372 -0.305235
v -0.204894 0.160372 -0.305235
v 0.039433 0.160372 -0.061032
v 0.039433 0.160372 0.061032
v -0.082631 0.160372 0.061032
v -0.082631 0.160372 -0.061032
v 0.039433 0.572063 -0.061032
v 0.039433 0.572063 0.061032
v -0.082631 0.572063 0.061032
v -0.082631 0.572063 -0.061032
v 0.039433 0.655652 -0.061032
v 0.039433 0.655652 0.061032
v -0.082631 0.655652 0.061032
v -0.082631 0.655652 -0.061032
v 0.129403 0.572063 -0.151002
v 0.129403 0.572063 0.151002
v 0.129403 0.655652 -0.151002
v 0.129403 0.655652 0.151002
v -0.172602 0.572063 0.151002
v -0.172602 0.655652 0.151002
v -0.172602 0.655652 -0.151002
v -0.172602 0.572063 -0.151002
vt 0.174024 0.478454
vt 0.174024 0.478454
vt 0.174024 0.478454
vt 0.174024 0.478454
vt 0.240925 0.478454
vt 0.240925 0.478454
vt 0.240925 0.478454
vt 0.240925 0.478454
vt 0.174024 0.478454
vt 0.174024 0.478454
vt 0.174024 0.478454
vt 0.174024 0.478454
vt 0.137228 0.478454
vt 0.137228 0.478454
vt 0.137228 0.478454
vt 0.137228 0.478454
vt 0.209984 0.478454
vt 0.209984 0.478454
vt 0.209984 0.478454
vt 0.209984 0.478454
vt 0.301937 0.222965
vt 0.301937 0.222965
vt 0.301937 0.222965
vt 0.209984 0.478454
vt 0.209984 0.478454
vt 0.209984 0.478454
vt 0.209984 0.478454
vt 0.209984 0.478454
vt 0.209984 0.478454
vt 0.209984 0.478454
vt 0.209984 0.478454
vt 0.209984 0.478454
vt 0.209984 0.478454
vt 0.209984 0.478454
vt 0.209984 0.478454
vt 0.209984 0.478454
vt 0.209984 0.478454
vt 0.209984 0.478454
vt 0.209984 0.478454
vt 0.209984 0.478454
vt 0.209984 0.478454
vt 0.209984 0.478454
vt 0.209984 0.478454
vt 0.209984 0.478454
vt 0.209984 0.478454
vt 0.209984 0.478454
vt 0.209984 0.478454
vt 0.209984 0.478454
vt 0.209984 0.478454
vt 0.301937 0.222965
vt 0.301937 0.222965
vt 0.301937 0.222965
vt 0.236041 0.476605
vt 0.236041 0.476605
vt 0.236041 0.476605
vt 0.236041 0.476605
vt 0.242291 0.476698
vt 0.242291 0.476698
vt 0.242291 0.476698
vt 0.242291 0.476698
vt 0.236041 0.476605
vt 0.236041 0.476605
vt 0.236041 0.476605
vt 0.236041 0.476605
vt 0.138594 0.476698
vt 0.138594 0.476698
vt 0.138594 0.476698
vt 0.138594 0.476698
vt 0.236041 0.476605
vt 0.236041 0.476605
vt 0.236041 0.476605
vt 0.236041 0.476605
vt 0.236041 0.476605
vt 0.236041 0.476605
vt 0.236041 0.476605
vt 0.236041 0.476605
vt 0.211349 0.476698
vt 0.211349 0.476698
vt 0.211349 0.476698
vt 0.211349 0.476698
vt 0.175390 0.476698
vt 0.175390 0.476698
vt 0.175390 0.476698
vt 0.175390 0.476698
vt 0.211349 0.476698
vt 0.211349 0.476698
vt 0.211349 0.476698
vt 0.211349 0.476698
vt 0.175390 0.476698
vt 0.175390 0.476698
vt 0.175390 0.476698
vt 0.175390 0.476698
vt 0.175390 0.476698
vt 0.175390 0.476698
vt 0.175390 0.476698
vt 0.175390 0.476698
vt 0.211349 0.476698
vt 0.211349 0.476698
vt 0.211349 0.476698
vt 0.211349 0.476698
vt 0.175390 0.476698
vt 0.175390 0.476698
vt 0.175390 0.476698
vt 0.175390 0.476698
vt 0.211349 0.476698
vt 0.211349 0.476698
vt 0.211349 0.476698
vt 0.211349 0.476698
vt 0.175390 0.476698
vt 0.175390 0.476698
vt 0.175390 0.476698
vt 0.175390 0.476698
vt 0.211349 0.476698
vt 0.211349 0.476698
vt 0.211349 0.476698
vt 0.211349 0.476698
vt 0.175390 0.476698
vt 0.175390 0.476698
vt 0.175390 0.476698
vt 0.175390 0.476698
vt 0.211349 0.476698
vt 0.211349 0.476698
vt 0.211349 0.476698
vt 0.211349 0.476698
vt 0.175390 0.476698
vt 0.175390 0.476698
vt 0.175390 0.476698
vt 0.175390 0.476698
vt 0.211349 0.476698
vt 0.211349 0.476698
vt 0.211349 0.476698
vt 0.211349 0.476698
vt 0.175390 0.476698
vt 0.175390 0.476698
vt 0.175390 0.476698
vt 0.175390 0.476698
vt 0.211349 0.476698
vt 0.211349 0.476698
vt 0.211349 0.476698
vt 0.211349 0.476698
vt 0.144204 0.475858
vt 0.144204 0.475858
vt 0.144204 0.475858
vt 0.144204 0.475858
vt 0.239948 0.476578
vt 0.239948 0.476578
vt 0.239948 0.476578
vt 0.239948 0.476578
vt 0.144204 0.475858
vt 0.144204 0.475858
vt 0.144204 0.475858
vt 0.144204 0.475858
vt 0.239948 0.476578
vt 0.239948 0.476578
vt 0.239948 0.476578
vt 0.239948 0.476578
vt 0.239948 0.476578
vt 0.239948 0.476578
vt 0.239948 0.476578
vt 0.239948 0.476578
vt 0.144204 0.475858
vt 0.144204 0.475858
vt 0.144204 0.475858
vt 0.144204 0.475858
vt 0.144204 0.475858
vt 0.144204 0.475858
vt 0.144204 0.475858
vt 0.144204 0.475858
vt 0.239948 0.476578
vt 0.239948 0.476578
vt 0.239948 0.476578
vt 0.239948 0.476578
vn 1.000000 0.000000 0.000000
vn 1.000000 0.000000 0.000000
vn 1.000000 0.000000 0.000000
vn 1.000000 0.000000 0.000000
vn 0.000000 1.000000 0.000000
vn 0.000000 1.000000 0.000000
vn 0.000000 1.000000 0.000000
vn 0.000000 1.000000 0.000000
vn -1.000000 0.000000 0.000000
vn -1.000000 0.000000 0.000000
vn -1.000000 0.000000 0.000000
vn -1.000000 0.000000 0.000000
vn 0.000000 -1.000000 0.000000
vn 0.000000 -1.000000 0.000000
vn 0.000000 -1.000000 0.000000
vn 0.000000 -1.000000 0.000000
vn 0.000000 0.000000 -1.000000
vn 0.000000 0.000000 -1.000000
vn 0.000000 0.000000 -1.000000
vn 0.000000 0.000000 -1.000000
vn 0.000000 0.000000 1.000000
vn 0.000000 0.000000 1.000000
vn 0.000000 0.000000 1.000000
vn 0.000000 0.000000 1.000000
vn 0.000000 0.000000 1.000000
vn 0.000000 0.000000 1.000000
vn 0.000000 0.000000 1.000000
vn 0.000000 0.000000 1.000000
vn 0.000000 0.000000 1.000000
vn 0.000000 0.000000 1.000000
vn 0.000000 0.000000 1.000000
vn 0.000000 0.000000 1.000000
vn 0.000000 0.000000 1.000000
vn 0.000000 0.000000 1.000000
vn 0.000000 0.000000 1.000000
vn 0.000000 0.000000 1.000000
vn 0.000000 0.000000 1.000000
vn 0.000000 0.000000 1.000000
vn 0.000000 0.000000 1.000000
vn 0.000000 0.000000 1.000000
vn 0.000000 0.000000 1.000000
vn 0.000000 0.000000 1.000000
vn 0.000000 0.000000 1.000000
vn 0.000000 0.000000 1.000000
vn 0.000000 0.000000 1.000000
vn 0.000000 0.000000 1.000000
vn 0.000000 0.000000 1.000000
vn 0.000000 0.000000 1.000000
vn 0.000000 0.000000 1.000000
vn 0.000000 0.000000 1.000000
vn 0.000000 0.000000 1.000000
vn 0.000000 0.000000 1.000000
vn 0.000000 1.000000 0.000000
vn 0.000000 1.000000 0.000000
vn 0.000000 1.000000 0.000000
vn 0.000000 1.000000 0.000000
vn 0.000000 1.000000 0.000000
vn 0.000000 1.000000 0.000000
vn 0.000000 1.000000 0.000000
vn 0.000000 1.000000 0.000000
vn 0.000000 1.000000 0.000000
vn 0.000000 1.000000 0.000000
vn 0.000000 1.000000 0.000000
vn 0.000000 1.000000 0.000000
vn 0.000000 -1.000000 0.000000
vn 0.000000 -1.000000 0.000000
vn 0.000000 -1.000000 0.000000
vn 0.000000 -1.000000 0.000000
vn 0.000000 1.000000 0.000000
vn 0.000000 1.000000 0.000000
vn 0.000000 1.000000 0.000000
vn 0.000000 1.000000 0.000000
vn 0.000000 1.000000 0.000000
vn 0.000000 1.000000 0.000000
vn 0.000000 1.000000 0.000000
vn 0.000000 1.000000 0.000000
vn 0.000000 0.000000 1.000000
vn 0.000000 0.000000 1.000000
vn 0.000000 0.000000 1.000000
vn 0.000000 0.000000 1.000000
vn 1.000000 0.000000 0.000000
vn 1.000000 0.000000 0.000000
vn 1.000000 0.000000 0.000000
vn 1.000000 0.000000 0.000000
vn 0.000000 0.000000 -1.000000
vn 0.000000 0.000000 -1.000000
vn 0.000000 0.000000 -1.000000
vn 0.000000 0.000000 -1.000000
vn -1.000000 0.000000 0.000000
vn -1.000000 0.000000 0.000000
vn -1.000000 0.000000 0.000000
vn -1.000000 0.000000 0.000000
vn 1.000000 0.000000 0.000000
vn 1.000000 0.000000 0.000000
vn 1.000000 0.000000 0.000000
vn 1.000000 0.000000 0.000000
vn 0.000000 0.000000 1.000000
vn 0.000000 0.000000 1.000000
vn 0.000000 0.000000 1.000000
vn 0.000000 0.000000 1.000000
vn -1.000000 0.000000 0.000000
vn -1.000000 0.000000 0.000000
vn -1.000000 0.000000 0.000000
vn -1.000000 0.000000 0.000000
vn 0.000000 0.000000 -1.000000
vn 0.000000 0.000000 -1.000000
vn 0.000000 0.000000 -1.000000
vn 0.000000 0.000000 -1.000000
vn 1.000000 0.000000 0.000000
vn 1.000000 0.000000 0.000000
vn 1.000000 0.000000 0.000000
vn 1.000000 0.000000 0.000000
vn 0.000000 0.000000 1.000000
vn 0.000000 0.000000 1.000000
vn 0.000000 0.000000 1.000000
vn 0.000000 0.000000 1.000000
vn -1.000000 0.000000 0.000000
vn -1.000000 0.000000 0.000000
vn -1.000000 0.000000 0.000000
vn -1.000000 0.000000 0.000000
vn 0.000000 0.000000 -1.000000
vn 0.000000 0.000000 -1.000000
vn 0.000000 0.000000 -1.000000
vn 0.000000 0.000000 -1.000000
vn 1.000000 0.000000 0.000000
vn 1.000000 0.000000 0.000000
vn 1.000000 0.000000 0.000000
vn 1.000000 0.000000 0.000000
vn 0.000000 0.000000 1.000000
vn 0.000000 0.000000 1.000000
vn 0.000000 0.000000 1.000000
vn 0.000000 0.000000 1.000000
vn -1.000000 0.000000 0.000000
vn -1.000000 0.000000 0.000000
vn -1.000000 0.000000 0.000000
vn -1.000000 0.000000 0.000000
vn 0.000000 0.000000 -1.000000
vn 0.000000 0.000000 -1.000000
vn 0.000000 0.000000 -1.000000
vn 0.000000 0.000000 -1.000000
vn 0.000000 -1.000000 0.000000
vn 0.000000 -1.000000 0.000000
vn 0.000000 -1.000000 0.000000
vn 0.000000 -1.000000 0.000000
vn 0.000000 1.000000 0.000000
vn 0.000000 1.000000 0.000000
vn 0.000000 1.000000 0.000000
vn 0.000000 1.000000 0.000000
vn 0.000000 -1.000000 -0.000001
vn 0.000000 -1.000000 -0.000001
vn 0.000000 -1.000000 -0.000001
vn 0.000000 -1.000000 -0.000001
vn -0.000001 1.000000 0.000000
vn -0.000001 1.000000 0.000000
vn -0.000001 1.000000 0.000000
vn -0.000001 1.000000 0.000000
vn 0.000000 1.000000 0.000000
vn 0.000000 1.000000 0.000000
vn 0.000000 1.000000 0.000000
vn 0.000000 1.000000 0.000000
vn 0.000000 -1.000000 0.000000
vn 0.000000 -1.000000 0.000000
vn 0.000000 -1.000000 0.000000
vn 0.000000 -1.000000 0.000000
vn 0.000000 -1.000000 0.000001
vn 0.000000 -1.000000 0.000001
vn 0.000000 -1.000000 0.000001
vn 0.000000 -1.000000 0.000001
vn -0.000001 1.000000 0.000000
vn -0.000001 1.000000 0.000000
vn -0.000001 1.000000 0.000000
vn -0.000001 1.000000 0.000000
s 1
g SM_Prop_Sign_01:Mesh
usemtl initialShadingGroup
f 1/1/1 2/2/2 3/4/3
f 3/4/3 2/2/2 4/3/4
s 2
f 3/5/5 4/6/6 5/8/7
f 5/8/7 4/6/6 6/7/8
s 3
f 5/9/9 6/10/10 7/12/11
f 7/12/11 6/10/10 8/11/12
s 4
f 7/13/13 8/14/14 1/16/15
f 1/16/15 8/14/14 2/15/16
s 5
f 2/17/17 8/18/18 4/20/19
f 4/20/19 8/18/18 6/19/20
s off
f 13/21/21 14/22/22 11/23/23
s 6
f 7/24/24 1/25/25 9/28/26
f 9/28/26 1/25/25 16/27/27
f 1/25/25 10/26/28 16/27/27
s 7
f 1/29/29 3/30/30 10/33/31
f 10/33/31 3/30/30 14/32/32
f 3/30/30 11/31/33 14/32/32
s 8
f 3/34/34 5/35/35 11/38/36
f 11/38/36 5/35/35 13/37/37
f 5/35/35 12/36/38 13/37/37
s 9
f 5/39/39 7/40/40 12/43/41
f 12/43/41 7/40/40 15/42/42
f 7/40/40 9/41/43 15/42/42
s 10
f 10/46/44 14/47/45 16/45/46
f 16/45/46 14/47/45 15/44/47
f 12/49/48 15/44/47 13/48/49
f 15/44/47 14/47/45 13/48/49
s off
f 9/50/50 16/51/51 15/52/52
s 11
f 26/53/53 27/54/54 30/56/55
f 30/56/55 27/54/54 29/55/56
s 12
f 19/57/57 20/58/58 21/60/59
f 21/60/59 20/58/58 22/59/60
s 13
f 31/61/61 32/62/62 25/64/63
f 25/64/63 32/62/62 28/63/64
s 14
f 23/65/65 24/66/66 17/68/67
f 17/68/67 24/66/66 18/67/68
s 15
f 27/69/69 28/70/70 29/72/71
f 29/72/71 28/70/70 32/71/72
s 16
f 26/74/73 30/75/74 25/73/75
f 25/73/75 30/75/74 31/76/76
s 17
f 23/77/77 17/78/78 25/80/79
f 25/80/79 17/78/78 26/79/80
s 18
f 17/81/81 18/82/82 26/84/83
f 26/84/83 18/82/82 27/83/84
s 19
f 18/85/85 24/86/86 27/88/87
f 27/88/87 24/86/86 28/87/88
s 20
f 25/89/89 28/90/90 23/92/91
f 23/92/91 28/90/90 24/91/92
s 21
f 30/93/93 29/94/94 34/96/95
f 34/96/95 29/94/94 33/95/96
s 22
f 31/97/97 30/98/98 35/100/99
f 35/100/99 30/98/98 34/99/100
s 23
f 35/101/101 36/102/102 31/104/103
f 31/104/103 36/102/102 32/103/104
s 24
f 29/105/105 32/106/106 33/108/107
f 33/108/107 32/106/106 36/107/108
s 25
f 42/109/109 41/110/110 44/112/111
f 44/112/111 41/110/110 43/111/112
s 26
f 45/113/113 42/114/114 46/116/115
f 46/116/115 42/114/114 44/115/116
s 27
f 46/117/117 47/118/118 45/120/119
f 45/120/119 47/118/118 48/119/120
s 28
f 41/121/121 48/122/122 43/124/123
f 43/124/123 48/122/122 47/123/124
s 29
f 38/125/125 37/126/126 19/128/127
f 19/128/127 37/126/126 20/127/128
s 30
f 39/129/129 38/130/130 21/132/131
f 21/132/131 38/130/130 19/131/132
s 31
f 21/133/133 22/134/134 39/136/135
f 39/136/135 22/134/134 40/135/136
s 32
f 37/137/137 40/138/138 20/140/139
f 20/140/139 40/138/138 22/139/140
s 33
f 34/141/141 33/142/142 42/144/143
f 42/144/143 33/142/142 41/143/144
s 34
f 37/145/145 38/146/146 43/148/147
f 43/148/147 38/146/146 44/147/148
s 35
f 35/149/149 34/150/150 45/152/151
f 45/152/151 34/150/150 42/151/152
s 36
f 38/153/153 39/154/154 44/156/155
f 44/156/155 39/154/154 46/155/156
s 37
f 39/157/157 40/158/158 46/160/159
f 46/160/159 40/158/158 47/159/160
s 38
f 36/161/161 35/162/162 48/164/163
f 48/164/163 35/162/162 45/163/164
s 39
f 33/165/165 36/166/166 41/168/167
f 41/168/167 36/166/166 48/167/168
s 40
f 40/169/169 37/170/170 47/172/171
f 47/172/171 37/170/170 43/171/172
